<?xml version="1.0" encoding="utf-8"?>
<!-- Generator: Adobe Illustrator 20.1.0, SVG Export Plug-In . SVG Version: 6.00 Build 0)  -->
<svg version="1.1" id="Layer_1" xmlns="http://www.w3.org/2000/svg" xmlns:xlink="http://www.w3.org/1999/xlink" x="0px" y="0px"
	 viewBox="0 0 612 792" style="enable-background:new 0 0 612 792;" xml:space="preserve">
<style type="text/css">
	.st0{clip-path:url(#SVGID_2_);fill:#5D9BD3;}
	.st1{clip-path:url(#SVGID_4_);fill:none;stroke:#D9D9D8;stroke-linejoin:round;stroke-miterlimit:10;}
	.st2{clip-path:url(#SVGID_6_);fill:none;stroke:#D9D9D8;stroke-linejoin:round;stroke-miterlimit:10;}
	.st3{clip-path:url(#SVGID_8_);fill:none;stroke:#D9D9D8;stroke-linejoin:round;stroke-miterlimit:10;}
	.st4{clip-path:url(#SVGID_10_);}
	.st5{fill:#595A5A;}
	.st6{font-family:'Helvetica';}
	.st7{font-size:9px;}
	.st8{clip-path:url(#SVGID_12_);}
	.st9{clip-path:url(#SVGID_14_);}
	.st10{clip-path:url(#SVGID_16_);}
	.st11{clip-path:url(#SVGID_18_);}
	.st12{clip-path:url(#SVGID_20_);}
	.st13{clip-path:url(#SVGID_22_);}
	.st14{clip-path:url(#SVGID_24_);}
	.st15{clip-path:url(#SVGID_26_);}
	.st16{clip-path:url(#SVGID_28_);}
	.st17{clip-path:url(#SVGID_30_);}
	.st18{clip-path:url(#SVGID_32_);}
	.st19{letter-spacing:1.1;}
	.st20{clip-path:url(#SVGID_34_);}
	.st21{clip-path:url(#SVGID_36_);}
	.st22{clip-path:url(#SVGID_38_);}
	.st23{clip-path:url(#SVGID_40_);}
	.st24{clip-path:url(#SVGID_42_);}
	.st25{clip-path:url(#SVGID_44_);}
	.st26{clip-path:url(#SVGID_46_);}
	.st27{clip-path:url(#SVGID_48_);}
	.st28{clip-path:url(#SVGID_50_);}
	.st29{clip-path:url(#SVGID_52_);}
	.st30{clip-path:url(#SVGID_54_);}
	.st31{clip-path:url(#SVGID_56_);}
	.st32{clip-path:url(#SVGID_58_);}
	.st33{clip-path:url(#SVGID_60_);}
	.st34{clip-path:url(#SVGID_62_);}
	.st35{clip-path:url(#SVGID_64_);}
	.st36{clip-path:url(#SVGID_66_);}
	.st37{clip-path:url(#SVGID_68_);}
	.st38{clip-path:url(#SVGID_70_);}
	.st39{clip-path:url(#SVGID_72_);}
	.st40{clip-path:url(#SVGID_74_);}
	.st41{clip-path:url(#SVGID_76_);}
	.st42{clip-path:url(#SVGID_78_);}
	.st43{clip-path:url(#SVGID_80_);}
	.st44{clip-path:url(#SVGID_82_);}
	.st45{clip-path:url(#SVGID_84_);}
	.st46{clip-path:url(#SVGID_86_);}
	.st47{clip-path:url(#SVGID_88_);}
	.st48{clip-path:url(#SVGID_90_);}
	.st49{clip-path:url(#SVGID_92_);}
	.st50{clip-path:url(#SVGID_94_);}
	.st51{clip-path:url(#SVGID_96_);}
	.st52{clip-path:url(#SVGID_98_);}
	.st53{clip-path:url(#SVGID_100_);}
	.st54{clip-path:url(#SVGID_102_);}
	.st55{clip-path:url(#SVGID_104_);}
	.st56{clip-path:url(#SVGID_106_);}
	.st57{clip-path:url(#SVGID_108_);}
	.st58{clip-path:url(#SVGID_110_);}
	.st59{clip-path:url(#SVGID_112_);}
	.st60{clip-path:url(#SVGID_114_);}
	.st61{clip-path:url(#SVGID_116_);}
	.st62{clip-path:url(#SVGID_118_);}
	.st63{clip-path:url(#SVGID_120_);}
	.st64{clip-path:url(#SVGID_122_);}
	.st65{clip-path:url(#SVGID_124_);}
	.st66{clip-path:url(#SVGID_126_);}
	.st67{clip-path:url(#SVGID_128_);}
	.st68{clip-path:url(#SVGID_130_);fill:none;stroke:#D9D9D8;stroke-linejoin:round;stroke-miterlimit:10;}
	.st69{clip-path:url(#SVGID_132_);}
	.st70{fill:#595959;}
	.st71{font-size:23.6382px;}
</style>
<g>
	<g>
		<g>
			<defs>
				<rect id="SVGID_1_" x="95.8" y="109" width="492.1" height="592"/>
			</defs>
			<clipPath id="SVGID_2_">
				<use xlink:href="#SVGID_1_"  style="overflow:visible;"/>
			</clipPath>
			<path class="st0" d="M528,117H95.8v-4H528V117z M516.6,129H95.8v-4h420.9v4H516.6z M510.9,141H95.8v-4H511v4H510.9z M509,153
				H95.8v-4H509V153z M509,165H95.8v-5H509V165z M495.7,176h-400v-4h400V176z M487.2,188H95.8v-4h391.4V188z M481.5,200H95.8v-4
				h385.7V200z M456.8,212h-361v-4h361V212z M445.4,224H95.8v-4h349.6L445.4,224L445.4,224z M425.4,236H95.8v-5h329.7v5H425.4z
				 M422.6,247H95.8v-4h326.8L422.6,247L422.6,247z M407.4,259H95.8v-4h311.6L407.4,259L407.4,259z M407.4,271H95.8v-4h311.6
				L407.4,271L407.4,271z M406.4,283H95.8v-4h310.7v4H406.4z M401.7,295H95.8v-5h305.9V295z M399.8,306h-304v-4h304V306z M397.9,318
				H95.8v-4h302.1L397.9,318L397.9,318z M393.1,330H95.8v-4h297.4v4H393.1z M384.6,342H95.8v-4h288.8L384.6,342L384.6,342z
				 M382.7,354H95.8v-4h286.9V354z M378.9,366H95.8v-5h283.1L378.9,366L378.9,366z M370.3,377H95.8v-4h274.6v4H370.3z M357,389H95.8
				v-4H357V389z M349.4,401H95.8v-4h253.7v4H349.4z M348.5,413H95.8v-4h252.7V413z M345.6,425H95.8v-5h249.9v5H345.6z M341.8,436
				h-246v-4h246.1v4H341.8z M339,448H95.8v-4H339V448z M326.6,460H95.8v-4h230.9v4H326.6z M326.6,472H95.8v-4h230.9v4H326.6z
				 M322.8,484h-227v-4h227.1v4H322.8z M318.1,496H95.8v-5h222.3V496z M314.3,507H95.8v-4h218.5V507z M312.4,519H95.8v-4h216.6
				L312.4,519L312.4,519z M308.6,531H95.8v-4h212.8V531z M306.7,543H95.8v-4h210.9V543z M304.8,555h-209v-4h209V555z M297.2,567
				H95.8v-5h201.4V567z M292.4,578H95.8v-4h196.7v4H292.4z M290.5,590H95.8v-4h194.8v4H290.5z M276.3,602H95.8v-4h180.5V602z
				 M272.5,614H95.8v-4h176.7V614z M268.7,626H95.8v-5h172.9V626z M265.8,637h-170v-4h170.1v4H265.8z M251.6,649H95.8v-4h155.8V649z
				 M239.2,661H95.8v-4h143.5v4H239.2z M222.1,673H95.8v-4h126.4v4H222.1z M216.4,685H95.8v-4h120.7v4H216.4z M211.7,697H95.8v-5
				h115.9L211.7,697L211.7,697z"/>
		</g>
	</g>
</g>
<g>
	<g>
		<g>
			<defs>
				<rect id="SVGID_3_" x="2.7" y="68" width="602.3" height="656"/>
			</defs>
			<clipPath id="SVGID_4_">
				<use xlink:href="#SVGID_3_"  style="overflow:visible;"/>
			</clipPath>
			<line class="st1" x1="96.3" y1="700.5" x2="96.3" y2="109.5"/>
		</g>
	</g>
	<g>
		<g>
			<defs>
				<rect id="SVGID_5_" x="2.7" y="68" width="602.3" height="656"/>
			</defs>
			<clipPath id="SVGID_6_">
				<use xlink:href="#SVGID_5_"  style="overflow:visible;"/>
			</clipPath>
			<path class="st2" d="M26.9,109.5h69.4 M26.9,121.5h69.4 M26.9,132.5h69.4 M26.9,144.5h69.4 M26.9,156.5h69.4 M26.9,168.5h69.4
				 M26.9,180.5h69.4 M26.9,192.5h69.4 M26.9,203.5h69.4 M26.9,215.5h69.4 M26.9,227.5h69.4 M26.9,239.5h69.4 M26.9,251.5h69.4
				 M26.9,262.5h69.4 M26.9,274.5h69.4 M26.9,286.5h69.4 M26.9,298.5h69.4 M26.9,310.5h69.4 M26.9,322.5h69.4 M26.9,333.5h69.4
				 M26.9,345.5h69.4 M26.9,357.5h69.4 M26.9,369.5h69.4 M26.9,381.5h69.4 M26.9,393.5h69.4 M26.9,404.5h69.4 M26.9,416.5h69.4
				 M26.9,428.5h69.4 M26.9,440.5h69.4 M26.9,452.5h69.4 M26.9,463.5h69.4 M26.9,475.5h69.4 M26.9,487.5h69.4 M26.9,499.5h69.4
				 M26.9,511.5h69.4 M26.9,523.5h69.4 M26.9,534.5h69.4 M26.9,546.5h69.4 M26.9,558.5h69.4 M26.9,570.5h69.4 M26.9,582.5h69.4
				 M26.9,593.5h69.4 M26.9,605.5h69.4 M26.9,617.5h69.4 M26.9,629.5h69.4 M26.9,641.5h69.4 M26.9,653.5h69.4 M26.9,664.5h69.4
				 M26.9,676.5h69.4 M26.9,688.5h69.4 M26.9,700.5h69.4"/>
		</g>
	</g>
	<g>
		<g>
			<defs>
				<rect id="SVGID_7_" x="2.7" y="68" width="602.3" height="656"/>
			</defs>
			<clipPath id="SVGID_8_">
				<use xlink:href="#SVGID_7_"  style="overflow:visible;"/>
			</clipPath>
			<path class="st3" d="M7.9,109.5h19 M7.9,121.5h19 M7.9,132.5h19 M7.9,144.5h19 M7.9,156.5h19 M7.9,168.5h19 M7.9,180.5h19
				 M7.9,192.5h19 M7.9,203.5h19 M7.9,215.5h19 M7.9,227.5h19 M7.9,239.5h19 M7.9,251.5h19 M7.9,262.5h19 M7.9,274.5h19 M7.9,286.5
				h19 M7.9,298.5h19 M7.9,310.5h19 M7.9,322.5h19 M7.9,333.5h19 M7.9,345.5h19 M7.9,357.5h19 M7.9,369.5h19 M7.9,381.5h19
				 M7.9,393.5h19 M7.9,404.5h19 M7.9,416.5h19 M7.9,428.5h19 M7.9,440.5h19 M7.9,452.5h19 M7.9,463.5h19 M7.9,475.5h19 M7.9,487.5
				h19 M7.9,499.5h19 M7.9,511.5h19 M7.9,523.5h19 M7.9,534.5h19 M7.9,546.5h19 M7.9,558.5h19 M7.9,570.5h19 M7.9,582.5h19
				 M7.9,593.5h19 M7.9,605.5h19 M7.9,617.5h19 M7.9,629.5h19 M7.9,641.5h19 M7.9,653.5h19 M7.9,664.5h19 M7.9,676.5h19 M7.9,688.5
				h19 M7.9,700.5h19"/>
		</g>
	</g>
	<g>
		<g>
			<defs>
				<rect id="SVGID_9_" x="2.7" y="68" width="602.3" height="656"/>
			</defs>
			<clipPath id="SVGID_10_">
				<use xlink:href="#SVGID_9_"  style="overflow:visible;"/>
			</clipPath>
			<g class="st4">
				<text transform="matrix(0.95 0 0 1 93.373 715.1953)" class="st5 st6 st7">0</text>
			</g>
		</g>
	</g>
	<g>
		<g>
			<defs>
				<rect id="SVGID_11_" x="2.7" y="68" width="602.3" height="656"/>
			</defs>
			<clipPath id="SVGID_12_">
				<use xlink:href="#SVGID_11_"  style="overflow:visible;"/>
			</clipPath>
			<g class="st8">
				<text transform="matrix(0.95 0 0 1 148.0029 715.1953)" class="st5 st6 st7">5</text>
			</g>
		</g>
	</g>
	<g>
		<g>
			<defs>
				<rect id="SVGID_13_" x="2.7" y="68" width="602.3" height="656"/>
			</defs>
			<clipPath id="SVGID_14_">
				<use xlink:href="#SVGID_13_"  style="overflow:visible;"/>
			</clipPath>
			<g class="st9">
				<text transform="matrix(0.95 0 0 1 200.7314 715.1953)" class="st5 st6 st7">10</text>
			</g>
		</g>
	</g>
	<g>
		<g>
			<defs>
				<rect id="SVGID_15_" x="2.7" y="68" width="602.3" height="656"/>
			</defs>
			<clipPath id="SVGID_16_">
				<use xlink:href="#SVGID_15_"  style="overflow:visible;"/>
			</clipPath>
			<g class="st10">
				<text transform="matrix(0.95 0 0 1 255.3613 715.1953)" class="st5 st6 st7">15</text>
			</g>
		</g>
	</g>
	<g>
		<g>
			<defs>
				<rect id="SVGID_17_" x="2.7" y="68" width="602.3" height="656"/>
			</defs>
			<clipPath id="SVGID_18_">
				<use xlink:href="#SVGID_17_"  style="overflow:visible;"/>
			</clipPath>
			<g class="st11">
				<text transform="matrix(0.95 0 0 1 309.9922 715.1953)" class="st5 st6 st7">20</text>
			</g>
		</g>
	</g>
	<g>
		<g>
			<defs>
				<rect id="SVGID_19_" x="2.7" y="68" width="602.3" height="656"/>
			</defs>
			<clipPath id="SVGID_20_">
				<use xlink:href="#SVGID_19_"  style="overflow:visible;"/>
			</clipPath>
			<g class="st12">
				<text transform="matrix(0.95 0 0 1 364.6221 715.1953)" class="st5 st6 st7">25</text>
			</g>
		</g>
	</g>
	<g>
		<g>
			<defs>
				<rect id="SVGID_21_" x="2.7" y="68" width="602.3" height="656"/>
			</defs>
			<clipPath id="SVGID_22_">
				<use xlink:href="#SVGID_21_"  style="overflow:visible;"/>
			</clipPath>
			<g class="st13">
				<text transform="matrix(0.95 0 0 1 419.2539 715.1953)" class="st5 st6 st7">30</text>
			</g>
		</g>
	</g>
	<g>
		<g>
			<defs>
				<rect id="SVGID_23_" x="2.7" y="68" width="602.3" height="656"/>
			</defs>
			<clipPath id="SVGID_24_">
				<use xlink:href="#SVGID_23_"  style="overflow:visible;"/>
			</clipPath>
			<g class="st14">
				<text transform="matrix(0.95 0 0 1 473.8838 715.1953)" class="st5 st6 st7">35</text>
			</g>
		</g>
	</g>
	<g>
		<g>
			<defs>
				<rect id="SVGID_25_" x="2.7" y="68" width="602.3" height="656"/>
			</defs>
			<clipPath id="SVGID_26_">
				<use xlink:href="#SVGID_25_"  style="overflow:visible;"/>
			</clipPath>
			<g class="st15">
				<text transform="matrix(0.95 0 0 1 528.5146 715.1953)" class="st5 st6 st7">40</text>
			</g>
		</g>
	</g>
	<g>
		<g>
			<defs>
				<rect id="SVGID_27_" x="2.7" y="68" width="602.3" height="656"/>
			</defs>
			<clipPath id="SVGID_28_">
				<use xlink:href="#SVGID_27_"  style="overflow:visible;"/>
			</clipPath>
			<g class="st16">
				<text transform="matrix(0.95 0 0 1 583.1455 715.1953)" class="st5 st6 st7">45</text>
			</g>
		</g>
	</g>
</g>
<g>
	<g>
		<g>
			<defs>
				<rect id="SVGID_29_" x="2.7" y="688.6" width="256.7" height="11.8"/>
			</defs>
			<clipPath id="SVGID_30_">
				<use xlink:href="#SVGID_29_"  style="overflow:visible;"/>
			</clipPath>
			<g class="st17">
				<text transform="matrix(0.95 0 0 1 29.2979 698.0586)" class="st5 st6 st7">M</text>
				<text transform="matrix(0.95 0 0 1 35.9478 698.0586)" class="st5 st6 st7">a</text>
				<text transform="matrix(0.95 0 0 1 40.6978 698.0586)" class="st5 st6 st7">ss</text>
				<text transform="matrix(0.95 0 0 1 50.1978 698.0586)" class="st5 st6 st7">a</text>
				<text transform="matrix(0.95 0 0 1 54.9478 698.0586)" class="st5 st6 st7">c</text>
				<text transform="matrix(0.95 0 0 1 59.6978 698.0586)" class="st5 st6 st7">hu</text>
				<text transform="matrix(0.95 0 0 1 69.1978 698.0586)" class="st5 st6 st7">s</text>
				<text transform="matrix(0.95 0 0 1 73.9478 698.0586)" class="st5 st6 st7">e</text>
				<text transform="matrix(0.95 0 0 1 78.6978 698.0586)" class="st5 st6 st7">tt</text>
				<text transform="matrix(0.95 0 0 1 84.3975 698.0586)" class="st5 st6 st7">s</text>
			</g>
		</g>
	</g>
</g>
<g>
	<g>
		<g>
			<defs>
				<rect id="SVGID_31_" x="2.7" y="676.7" width="268.1" height="11.8"/>
			</defs>
			<clipPath id="SVGID_32_">
				<use xlink:href="#SVGID_31_"  style="overflow:visible;"/>
			</clipPath>
			<g class="st18">
				<text transform="matrix(0.95 0 0 1 27.3975 686.2373)" class="st5 st6 st7">N</text>
				<text transform="matrix(0.95 0 0 1 33.0977 686.2373)" class="st5 st6 st7">e</text>
				<text transform="matrix(0.95 0 0 1 37.8477 686.2373)" class="st5 st6 st7">w</text>
				<text transform="matrix(0.95 0 0 1 43.5479 686.2373)" class="st5 st6 st7 st19"> </text>
				<text transform="matrix(0.95 0 0 1 47.3477 686.2373)" class="st5 st6 st7">H</text>
				<text transform="matrix(0.95 0 0 1 53.0479 686.2373)" class="st5 st6 st7">a</text>
				<text transform="matrix(0.95 0 0 1 57.7979 686.2373)" class="st5 st6 st7">m</text>
				<text transform="matrix(0.95 0 0 1 64.4478 686.2373)" class="st5 st6 st7">p</text>
				<text transform="matrix(0.95 0 0 1 69.1978 686.2373)" class="st5 st6 st7">s</text>
				<text transform="matrix(0.95 0 0 1 73.9478 686.2373)" class="st5 st6 st7">hire</text>
			</g>
		</g>
	</g>
</g>
<g>
	<g>
		<g>
			<defs>
				<rect id="SVGID_33_" x="2.7" y="664.9" width="221.1" height="11.8"/>
			</defs>
			<clipPath id="SVGID_34_">
				<use xlink:href="#SVGID_33_"  style="overflow:visible;"/>
			</clipPath>
			<g class="st20">
				<text transform="matrix(0.95 0 0 1 41.8804 674.416)" class="st5 st6 st7">C</text>
				<text transform="matrix(0.95 0 0 1 47.5801 674.416)" class="st5 st6 st7">onne</text>
				<text transform="matrix(0.95 0 0 1 66.5801 674.416)" class="st5 st6 st7">ct</text>
				<text transform="matrix(0.95 0 0 1 74.1802 674.416)" class="st5 st6 st7">i</text>
				<text transform="matrix(0.95 0 0 1 76.0801 674.416)" class="st5 st6 st7">c</text>
				<text transform="matrix(0.95 0 0 1 80.8301 674.416)" class="st5 st6 st7">ut</text>
			</g>
		</g>
	</g>
</g>
<g>
	<g>
		<g>
			<defs>
				<rect id="SVGID_35_" x="2.7" y="653.1" width="219.6" height="11.8"/>
			</defs>
			<clipPath id="SVGID_36_">
				<use xlink:href="#SVGID_35_"  style="overflow:visible;"/>
			</clipPath>
			<g class="st21">
				<text transform="matrix(0.95 0 0 1 42.127 662.5947)" class="st5 st6 st7">N</text>
				<text transform="matrix(0.95 0 0 1 47.8271 662.5947)" class="st5 st6 st7">e</text>
				<text transform="matrix(0.95 0 0 1 52.5771 662.5947)" class="st5 st6 st7">w</text>
				<text transform="matrix(0.95 0 0 1 58.2773 662.5947)" class="st5 st6 st7 st19"> </text>
				<text transform="matrix(0.95 0 0 1 62.0771 662.5947)" class="st5 st6 st7">J</text>
				<text transform="matrix(0.95 0 0 1 66.8271 662.5947)" class="st5 st6 st7">er</text>
				<text transform="matrix(0.95 0 0 1 74.4268 662.5947)" class="st5 st6 st7">s</text>
				<text transform="matrix(0.95 0 0 1 79.1768 662.5947)" class="st5 st6 st7">ey</text>
			</g>
		</g>
	</g>
</g>
<g>
	<g>
		<g>
			<defs>
				<rect id="SVGID_37_" x="2.7" y="641.3" width="182.6" height="11.8"/>
			</defs>
			<clipPath id="SVGID_38_">
				<use xlink:href="#SVGID_37_"  style="overflow:visible;"/>
			</clipPath>
			<g class="st22">
				<text transform="matrix(0.95 0 0 1 55.9023 650.7734)" class="st5 st6 st7">Ver</text>
				<text transform="matrix(0.95 0 0 1 69.2021 650.7734)" class="st5 st6 st7">m</text>
				<text transform="matrix(0.95 0 0 1 75.8521 650.7734)" class="st5 st6 st7">ont</text>
			</g>
		</g>
	</g>
</g>
<g>
	<g>
		<g>
			<defs>
				<rect id="SVGID_39_" x="2.7" y="629.4" width="204" height="11.8"/>
			</defs>
			<clipPath id="SVGID_40_">
				<use xlink:href="#SVGID_39_"  style="overflow:visible;"/>
			</clipPath>
			<g class="st23">
				<text transform="matrix(0.95 0 0 1 48.5352 638.9521)" class="st5 st6 st7">M</text>
				<text transform="matrix(0.95 0 0 1 55.1851 638.9521)" class="st5 st6 st7">inne</text>
				<text transform="matrix(0.95 0 0 1 71.335 638.9521)" class="st5 st6 st7">s</text>
				<text transform="matrix(0.95 0 0 1 76.085 638.9521)" class="st5 st6 st7">o</text>
				<text transform="matrix(0.95 0 0 1 80.835 638.9521)" class="st5 st6 st7">t</text>
				<text transform="matrix(0.95 0 0 1 83.6851 638.9521)" class="st5 st6 st7">a</text>
			</g>
		</g>
	</g>
</g>
<g>
	<g>
		<g>
			<defs>
				<rect id="SVGID_41_" x="2.7" y="617.6" width="236.8" height="11.8"/>
			</defs>
			<clipPath id="SVGID_42_">
				<use xlink:href="#SVGID_41_"  style="overflow:visible;"/>
			</clipPath>
			<g class="st24">
				<text transform="matrix(0.95 0 0 1 37.3638 627.1309)" class="st5 st6 st7">R</text>
				<text transform="matrix(0.95 0 0 1 43.0635 627.1309)" class="st5 st6 st7">hode</text>
				<text transform="matrix(0.95 0 0 1 62.0635 627.1309)" class="st5 st6 st7"> Is</text>
				<text transform="matrix(0.95 0 0 1 72.5137 627.1309)" class="st5 st6 st7">land</text>
			</g>
		</g>
	</g>
</g>
<g>
	<g>
		<g>
			<defs>
				<rect id="SVGID_43_" x="2.7" y="605.8" width="196.8" height="11.8"/>
			</defs>
			<clipPath id="SVGID_44_">
				<use xlink:href="#SVGID_43_"  style="overflow:visible;"/>
			</clipPath>
			<g class="st25">
				<text transform="matrix(0.95 0 0 1 50.6777 615.3096)" class="st5 st6 st7">N</text>
				<text transform="matrix(0.95 0 0 1 56.377 615.3096)" class="st5 st6 st7">e</text>
				<text transform="matrix(0.95 0 0 1 61.127 615.3096)" class="st5 st6 st7">w</text>
				<text transform="matrix(0.95 0 0 1 66.8271 615.3096)" class="st5 st6 st7 st19"> </text>
				<text transform="matrix(0.95 0 0 1 70.627 615.3096)" class="st5 st6 st7">York</text>
			</g>
		</g>
	</g>
</g>
<g>
	<g>
		<g>
			<defs>
				<rect id="SVGID_45_" x="2.7" y="594" width="155.5" height="11.8"/>
			</defs>
			<clipPath id="SVGID_46_">
				<use xlink:href="#SVGID_45_"  style="overflow:visible;"/>
			</clipPath>
			<g class="st26">
				<text transform="matrix(0.95 0 0 1 65.165 603.4883)" class="st5 st6 st7">M</text>
				<text transform="matrix(0.95 0 0 1 71.8145 603.4883)" class="st5 st6 st7">aine</text>
			</g>
		</g>
	</g>
</g>
<g>
	<g>
		<g>
			<defs>
				<rect id="SVGID_47_" x="2.7" y="582.2" width="191.1" height="11.8"/>
			</defs>
			<clipPath id="SVGID_48_">
				<use xlink:href="#SVGID_47_"  style="overflow:visible;"/>
			</clipPath>
			<g class="st27">
				<text transform="matrix(0.95 0 0 1 52.5771 591.667)" class="st5 st6 st7">M</text>
				<text transform="matrix(0.95 0 0 1 59.2275 591.667)" class="st5 st6 st7">ar</text>
				<text transform="matrix(0.95 0 0 1 66.8271 591.667)" class="st5 st6 st7">y</text>
				<text transform="matrix(0.95 0 0 1 71.5771 591.667)" class="st5 st6 st7">land</text>
			</g>
		</g>
	</g>
</g>
<g>
	<g>
		<g>
			<defs>
				<rect id="SVGID_49_" x="2.7" y="570.3" width="202.5" height="11.8"/>
			</defs>
			<clipPath id="SVGID_50_">
				<use xlink:href="#SVGID_49_"  style="overflow:visible;"/>
			</clipPath>
			<g class="st28">
				<text transform="matrix(0.95 0 0 1 48.7773 579.8457)" class="st5 st6 st7">W</text>
				<text transform="matrix(0.95 0 0 1 56.377 579.8457)" class="st5 st6 st7">i</text>
				<text transform="matrix(0.95 0 0 1 58.2773 579.8457)" class="st5 st6 st7">sc</text>
				<text transform="matrix(0.95 0 0 1 67.7773 579.8457)" class="st5 st6 st7">on</text>
				<text transform="matrix(0.95 0 0 1 77.2773 579.8457)" class="st5 st6 st7">s</text>
				<text transform="matrix(0.95 0 0 1 82.0273 579.8457)" class="st5 st6 st7">in</text>
			</g>
		</g>
	</g>
</g>
<g>
	<g>
		<g>
			<defs>
				<rect id="SVGID_51_" x="2.7" y="558.5" width="171.2" height="11.8"/>
			</defs>
			<clipPath id="SVGID_52_">
				<use xlink:href="#SVGID_51_"  style="overflow:visible;"/>
			</clipPath>
			<g class="st29">
				<text transform="matrix(0.95 0 0 1 59.6982 568.0244)" class="st5 st6 st7">Virginia</text>
			</g>
		</g>
	</g>
</g>
<g>
	<g>
		<g>
			<defs>
				<rect id="SVGID_53_" x="2.7" y="546.7" width="221.1" height="11.8"/>
			</defs>
			<clipPath id="SVGID_54_">
				<use xlink:href="#SVGID_53_"  style="overflow:visible;"/>
			</clipPath>
			<g class="st30">
				<text transform="matrix(0.95 0 0 1 42.8306 556.2031)" class="st5 st6 st7">W</text>
				<text transform="matrix(0.95 0 0 1 50.4302 556.2031)" class="st5 st6 st7">a</text>
				<text transform="matrix(0.95 0 0 1 55.1802 556.2031)" class="st5 st6 st7">s</text>
				<text transform="matrix(0.95 0 0 1 59.9302 556.2031)" class="st5 st6 st7">hing</text>
				<text transform="matrix(0.95 0 0 1 76.0806 556.2031)" class="st5 st6 st7">t</text>
				<text transform="matrix(0.95 0 0 1 78.9302 556.2031)" class="st5 st6 st7">on</text>
			</g>
		</g>
	</g>
</g>
<g>
	<g>
		<g>
			<defs>
				<rect id="SVGID_55_" x="2.7" y="534.9" width="238.2" height="11.8"/>
			</defs>
			<clipPath id="SVGID_56_">
				<use xlink:href="#SVGID_55_"  style="overflow:visible;"/>
			</clipPath>
			<g class="st31">
				<text transform="matrix(0.95 0 0 1 36.1758 544.3828)" class="st5 st6 st7">Penn</text>
				<text transform="matrix(0.95 0 0 1 56.1255 544.3828)" class="st5 st6 st7">sy</text>
				<text transform="matrix(0.95 0 0 1 65.6255 544.3828)" class="st5 st6 st7">l</text>
				<text transform="matrix(0.95 0 0 1 67.5254 544.3828)" class="st5 st6 st7">v</text>
				<text transform="matrix(0.95 0 0 1 72.2754 544.3828)" class="st5 st6 st7">ania</text>
			</g>
		</g>
	</g>
</g>
<g>
	<g>
		<g>
			<defs>
				<rect id="SVGID_57_" x="16.1" y="523.1" width="126.4" height="11.8"/>
			</defs>
			<clipPath id="SVGID_58_">
				<use xlink:href="#SVGID_57_"  style="overflow:visible;"/>
			</clipPath>
			<g class="st32">
				<text transform="matrix(0.95 0 0 1 69.6777 532.5615)" class="st5 st6 st7">U</text>
				<text transform="matrix(0.95 0 0 1 75.377 532.5615)" class="st5 st6 st7">t</text>
				<text transform="matrix(0.95 0 0 1 78.2275 532.5615)" class="st5 st6 st7">ah</text>
			</g>
		</g>
	</g>
</g>
<g>
	<g>
		<g>
			<defs>
				<rect id="SVGID_59_" x="16.1" y="511.2" width="126.4" height="11.8"/>
			</defs>
			<clipPath id="SVGID_60_">
				<use xlink:href="#SVGID_59_"  style="overflow:visible;"/>
			</clipPath>
			<g class="st33">
				<text transform="matrix(0.95 0 0 1 69.6777 520.7402)" class="st5 st6 st7">I</text>
				<text transform="matrix(0.95 0 0 1 72.5273 520.7402)" class="st5 st6 st7">o</text>
				<text transform="matrix(0.95 0 0 1 77.2773 520.7402)" class="st5 st6 st7">w</text>
				<text transform="matrix(0.95 0 0 1 82.9775 520.7402)" class="st5 st6 st7">a</text>
			</g>
		</g>
	</g>
</g>
<g>
	<g>
		<g>
			<defs>
				<rect id="SVGID_61_" x="2.7" y="499.4" width="171.2" height="11.8"/>
			</defs>
			<clipPath id="SVGID_62_">
				<use xlink:href="#SVGID_61_"  style="overflow:visible;"/>
			</clipPath>
			<g class="st34">
				<text transform="matrix(0.95 0 0 1 59.6982 508.9189)" class="st5 st6 st7">Oregon</text>
			</g>
		</g>
	</g>
</g>
<g>
	<g>
		<g>
			<defs>
				<rect id="SVGID_63_" x="2.7" y="487.6" width="189.7" height="11.8"/>
			</defs>
			<clipPath id="SVGID_64_">
				<use xlink:href="#SVGID_63_"  style="overflow:visible;"/>
			</clipPath>
			<g class="st35">
				<text transform="matrix(0.95 0 0 1 53.7603 497.0977)" class="st5 st6 st7">C</text>
				<text transform="matrix(0.95 0 0 1 59.46 497.0977)" class="st5 st6 st7">olorado</text>
			</g>
		</g>
	</g>
</g>
<g>
	<g>
		<g>
			<defs>
				<rect id="SVGID_65_" x="2.7" y="475.8" width="194" height="11.8"/>
			</defs>
			<clipPath id="SVGID_66_">
				<use xlink:href="#SVGID_65_"  style="overflow:visible;"/>
			</clipPath>
			<g class="st36">
				<text transform="matrix(0.95 0 0 1 52.0977 485.2764)" class="st5 st6 st7">D</text>
				<text transform="matrix(0.95 0 0 1 57.7979 485.2764)" class="st5 st6 st7">ela</text>
				<text transform="matrix(0.95 0 0 1 69.1978 485.2764)" class="st5 st6 st7">w</text>
				<text transform="matrix(0.95 0 0 1 74.8975 485.2764)" class="st5 st6 st7">are</text>
			</g>
		</g>
	</g>
</g>
<g>
	<g>
		<g>
			<defs>
				<rect id="SVGID_67_" x="2.7" y="463.9" width="194" height="11.8"/>
			</defs>
			<clipPath id="SVGID_68_">
				<use xlink:href="#SVGID_67_"  style="overflow:visible;"/>
			</clipPath>
			<g class="st37">
				<text transform="matrix(0.95 0 0 1 52.0977 473.4551)" class="st5 st6 st7">C</text>
				<text transform="matrix(0.95 0 0 1 57.7979 473.4551)" class="st5 st6 st7">ali</text>
				<text transform="matrix(0.95 0 0 1 66.3477 473.4551)" class="st5 st6 st7">f</text>
				<text transform="matrix(0.95 0 0 1 69.1978 473.4551)" class="st5 st6 st7">ornia</text>
			</g>
		</g>
	</g>
</g>
<g>
	<g>
		<g>
			<defs>
				<rect id="SVGID_69_" x="2.7" y="452.1" width="188.3" height="11.8"/>
			</defs>
			<clipPath id="SVGID_70_">
				<use xlink:href="#SVGID_69_"  style="overflow:visible;"/>
			</clipPath>
			<g class="st38">
				<text transform="matrix(0.95 0 0 1 53.998 461.6338)" class="st5 st6 st7">M</text>
				<text transform="matrix(0.95 0 0 1 60.6475 461.6338)" class="st5 st6 st7">i</text>
				<text transform="matrix(0.95 0 0 1 62.5479 461.6338)" class="st5 st6 st7">c</text>
				<text transform="matrix(0.95 0 0 1 67.2979 461.6338)" class="st5 st6 st7">higan</text>
			</g>
		</g>
	</g>
</g>
<g>
	<g>
		<g>
			<defs>
				<rect id="SVGID_71_" x="2.7" y="440.3" width="195.4" height="11.8"/>
			</defs>
			<clipPath id="SVGID_72_">
				<use xlink:href="#SVGID_71_"  style="overflow:visible;"/>
			</clipPath>
			<g class="st39">
				<text transform="matrix(0.95 0 0 1 50.9102 449.8125)" class="st5 st6 st7">N</text>
				<text transform="matrix(0.95 0 0 1 56.6104 449.8125)" class="st5 st6 st7">ebra</text>
				<text transform="matrix(0.95 0 0 1 73.71 449.8125)" class="st5 st6 st7">sk</text>
				<text transform="matrix(0.95 0 0 1 83.21 449.8125)" class="st5 st6 st7">a</text>
			</g>
		</g>
	</g>
</g>
<g>
	<g>
		<g>
			<defs>
				<rect id="SVGID_73_" x="2.7" y="428.5" width="164" height="11.8"/>
			</defs>
			<clipPath id="SVGID_74_">
				<use xlink:href="#SVGID_73_"  style="overflow:visible;"/>
			</clipPath>
			<g class="st40">
				<text transform="matrix(0.95 0 0 1 61.8398 437.9912)" class="st5 st6 st7">F</text>
				<text transform="matrix(0.95 0 0 1 66.5898 437.9912)" class="st5 st6 st7">lorida</text>
			</g>
		</g>
	</g>
</g>
<g>
	<g>
		<g>
			<defs>
				<rect id="SVGID_75_" x="2.7" y="416.7" width="156.9" height="11.8"/>
			</defs>
			<clipPath id="SVGID_76_">
				<use xlink:href="#SVGID_75_"  style="overflow:visible;"/>
			</clipPath>
			<g class="st41">
				<text transform="matrix(0.95 0 0 1 63.9775 426.1699)" class="st5 st6 st7">I</text>
				<text transform="matrix(0.95 0 0 1 66.8271 426.1699)" class="st5 st6 st7">llinois</text>
			</g>
		</g>
	</g>
</g>
<g>
	<g>
		<g>
			<defs>
				<rect id="SVGID_77_" x="2.7" y="404.8" width="162.6" height="11.8"/>
			</defs>
			<clipPath id="SVGID_78_">
				<use xlink:href="#SVGID_77_"  style="overflow:visible;"/>
			</clipPath>
			<g class="st42">
				<text transform="matrix(0.95 0 0 1 63.0273 414.3486)" class="st5 st6 st7">H</text>
				<text transform="matrix(0.95 0 0 1 68.7275 414.3486)" class="st5 st6 st7">a</text>
				<text transform="matrix(0.95 0 0 1 73.4775 414.3486)" class="st5 st6 st7">w</text>
				<text transform="matrix(0.95 0 0 1 79.1777 414.3486)" class="st5 st6 st7">aii</text>
			</g>
		</g>
	</g>
</g>
<g>
	<g>
		<g>
			<defs>
				<rect id="SVGID_79_" x="2.7" y="393" width="149.8" height="11.8"/>
			</defs>
			<clipPath id="SVGID_80_">
				<use xlink:href="#SVGID_79_"  style="overflow:visible;"/>
			</clipPath>
			<g class="st43">
				<text transform="matrix(0.95 0 0 1 66.1104 402.5273)" class="st5 st6 st7">I</text>
				<text transform="matrix(0.95 0 0 1 68.96 402.5273)" class="st5 st6 st7">daho</text>
			</g>
		</g>
	</g>
</g>
<g>
	<g>
		<g>
			<defs>
				<rect id="SVGID_81_" x="2.7" y="381.2" width="236.7" height="11.8"/>
			</defs>
			<clipPath id="SVGID_82_">
				<use xlink:href="#SVGID_81_"  style="overflow:visible;"/>
			</clipPath>
			<g class="st44">
				<text transform="matrix(0.95 0 0 1 37.3726 390.7065)" class="st5 st6 st7">N</text>
				<text transform="matrix(0.95 0 0 1 43.0723 390.7065)" class="st5 st6 st7">or</text>
				<text transform="matrix(0.95 0 0 1 50.6724 390.7065)" class="st5 st6 st7">t</text>
				<text transform="matrix(0.95 0 0 1 53.5225 390.7065)" class="st5 st6 st7">h</text>
				<text transform="matrix(0.95 0 0 1 58.2725 390.7065)" class="st5 st6 st7"> </text>
				<text transform="matrix(0.95 0 0 1 61.1226 390.7065)" class="st5 st6 st7">D</text>
				<text transform="matrix(0.95 0 0 1 66.8223 390.7065)" class="st5 st6 st7">a</text>
				<text transform="matrix(0.95 0 0 1 71.5723 390.7065)" class="st5 st6 st7">k</text>
				<text transform="matrix(0.95 0 0 1 76.3223 390.7065)" class="st5 st6 st7">o</text>
				<text transform="matrix(0.95 0 0 1 81.0723 390.7065)" class="st5 st6 st7">t</text>
				<text transform="matrix(0.95 0 0 1 83.9224 390.7065)" class="st5 st6 st7">a</text>
			</g>
		</g>
	</g>
</g>
<g>
	<g>
		<g>
			<defs>
				<rect id="SVGID_83_" x="16.1" y="369.4" width="126.4" height="11.8"/>
			</defs>
			<clipPath id="SVGID_84_">
				<use xlink:href="#SVGID_83_"  style="overflow:visible;"/>
			</clipPath>
			<g class="st45">
				<text transform="matrix(0.95 0 0 1 69.6777 378.8853)" class="st5 st6 st7">Ohio</text>
			</g>
		</g>
	</g>
</g>
<g>
	<g>
		<g>
			<defs>
				<rect id="SVGID_85_" x="2.7" y="357.6" width="251" height="11.8"/>
			</defs>
			<clipPath id="SVGID_86_">
				<use xlink:href="#SVGID_85_"  style="overflow:visible;"/>
			</clipPath>
			<g class="st46">
				<text transform="matrix(0.95 0 0 1 33.0977 367.064)" class="st5 st6 st7">N</text>
				<text transform="matrix(0.95 0 0 1 38.7974 367.064)" class="st5 st6 st7">or</text>
				<text transform="matrix(0.95 0 0 1 46.3975 367.064)" class="st5 st6 st7">t</text>
				<text transform="matrix(0.95 0 0 1 49.2476 367.064)" class="st5 st6 st7">h</text>
				<text transform="matrix(0.95 0 0 1 53.9976 367.064)" class="st5 st6 st7"> </text>
				<text transform="matrix(0.95 0 0 1 56.8477 367.064)" class="st5 st6 st7">C</text>
				<text transform="matrix(0.95 0 0 1 62.5474 367.064)" class="st5 st6 st7">arolina</text>
			</g>
		</g>
	</g>
</g>
<g>
	<g>
		<g>
			<defs>
				<rect id="SVGID_87_" x="2.7" y="345.7" width="241.1" height="11.8"/>
			</defs>
			<clipPath id="SVGID_88_">
				<use xlink:href="#SVGID_87_"  style="overflow:visible;"/>
			</clipPath>
			<g class="st47">
				<text transform="matrix(0.95 0 0 1 35.7007 355.2427)" class="st5 st6 st7">Sou</text>
				<text transform="matrix(0.95 0 0 1 50.9004 355.2427)" class="st5 st6 st7">t</text>
				<text transform="matrix(0.95 0 0 1 53.7505 355.2427)" class="st5 st6 st7">h</text>
				<text transform="matrix(0.95 0 0 1 58.5005 355.2427)" class="st5 st6 st7"> </text>
				<text transform="matrix(0.95 0 0 1 60.4004 355.2427)" class="st5 st6 st7">D</text>
				<text transform="matrix(0.95 0 0 1 66.1006 355.2427)" class="st5 st6 st7">a</text>
				<text transform="matrix(0.95 0 0 1 70.8506 355.2427)" class="st5 st6 st7">k</text>
				<text transform="matrix(0.95 0 0 1 75.6006 355.2427)" class="st5 st6 st7">o</text>
				<text transform="matrix(0.95 0 0 1 80.3506 355.2427)" class="st5 st6 st7">t</text>
				<text transform="matrix(0.95 0 0 1 83.2007 355.2427)" class="st5 st6 st7">a</text>
			</g>
		</g>
	</g>
</g>
<g>
	<g>
		<g>
			<defs>
				<rect id="SVGID_89_" x="2.7" y="333.9" width="185.4" height="11.8"/>
			</defs>
			<clipPath id="SVGID_90_">
				<use xlink:href="#SVGID_89_"  style="overflow:visible;"/>
			</clipPath>
			<g class="st48">
				<text transform="matrix(0.95 0 0 1 54.4727 343.4214)" class="st5 st6 st7">M</text>
				<text transform="matrix(0.95 0 0 1 61.123 343.4214)" class="st5 st6 st7">on</text>
				<text transform="matrix(0.95 0 0 1 70.623 343.4214)" class="st5 st6 st7">t</text>
				<text transform="matrix(0.95 0 0 1 73.4727 343.4214)" class="st5 st6 st7">ana</text>
			</g>
		</g>
	</g>
</g>
<g>
	<g>
		<g>
			<defs>
				<rect id="SVGID_91_" x="2.7" y="322.1" width="181.1" height="11.8"/>
			</defs>
			<clipPath id="SVGID_92_">
				<use xlink:href="#SVGID_91_"  style="overflow:visible;"/>
			</clipPath>
			<g class="st49">
				<text transform="matrix(0.95 0 0 1 56.145 331.6001)" class="st5 st6 st7">M</text>
				<text transform="matrix(0.95 0 0 1 62.7949 331.6001)" class="st5 st6 st7">i</text>
				<text transform="matrix(0.95 0 0 1 64.6948 331.6001)" class="st5 st6 st7">ss</text>
				<text transform="matrix(0.95 0 0 1 74.1948 331.6001)" class="st5 st6 st7">ouri</text>
			</g>
		</g>
	</g>
</g>
<g>
	<g>
		<g>
			<defs>
				<rect id="SVGID_93_" x="2.7" y="310.3" width="171.2" height="11.8"/>
			</defs>
			<clipPath id="SVGID_94_">
				<use xlink:href="#SVGID_93_"  style="overflow:visible;"/>
			</clipPath>
			<g class="st50">
				<text transform="matrix(0.95 0 0 1 58.748 319.7788)" class="st5 st6 st7">Kan</text>
				<text transform="matrix(0.95 0 0 1 73.9478 319.7788)" class="st5 st6 st7">s</text>
				<text transform="matrix(0.95 0 0 1 78.6978 319.7788)" class="st5 st6 st7">as</text>
			</g>
		</g>
	</g>
</g>
<g>
	<g>
		<g>
			<defs>
				<rect id="SVGID_95_" x="2.7" y="298.4" width="162.6" height="11.8"/>
			</defs>
			<clipPath id="SVGID_96_">
				<use xlink:href="#SVGID_95_"  style="overflow:visible;"/>
			</clipPath>
			<g class="st51">
				<text transform="matrix(0.95 0 0 1 62.0732 307.9575)" class="st5 st6 st7">Ala</text>
				<text transform="matrix(0.95 0 0 1 74.4229 307.9575)" class="st5 st6 st7">sk</text>
				<text transform="matrix(0.95 0 0 1 83.9229 307.9575)" class="st5 st6 st7">a</text>
			</g>
		</g>
	</g>
</g>
<g>
	<g>
		<g>
			<defs>
				<rect id="SVGID_97_" x="2.7" y="286.6" width="169.8" height="11.8"/>
			</defs>
			<clipPath id="SVGID_98_">
				<use xlink:href="#SVGID_97_"  style="overflow:visible;"/>
			</clipPath>
			<g class="st52">
				<text transform="matrix(0.95 0 0 1 59.9307 296.1367)" class="st5 st6 st7">I</text>
				<text transform="matrix(0.95 0 0 1 62.7803 296.1367)" class="st5 st6 st7">ndiana</text>
			</g>
		</g>
	</g>
</g>
<g>
	<g>
		<g>
			<defs>
				<rect id="SVGID_99_" x="2.7" y="274.8" width="176.9" height="11.8"/>
			</defs>
			<clipPath id="SVGID_100_">
				<use xlink:href="#SVGID_99_"  style="overflow:visible;"/>
			</clipPath>
			<g class="st53">
				<text transform="matrix(0.95 0 0 1 57.7979 284.3154)" class="st5 st6 st7">Georgia</text>
			</g>
		</g>
	</g>
</g>
<g>
	<g>
		<g>
			<defs>
				<rect id="SVGID_101_" x="2.7" y="263" width="255.3" height="11.8"/>
			</defs>
			<clipPath id="SVGID_102_">
				<use xlink:href="#SVGID_101_"  style="overflow:visible;"/>
			</clipPath>
			<g class="st54">
				<text transform="matrix(0.95 0 0 1 31.4258 272.4941)" class="st5 st6 st7">Sou</text>
				<text transform="matrix(0.95 0 0 1 46.6255 272.4941)" class="st5 st6 st7">t</text>
				<text transform="matrix(0.95 0 0 1 49.4756 272.4941)" class="st5 st6 st7">h</text>
				<text transform="matrix(0.95 0 0 1 54.2256 272.4941)" class="st5 st6 st7"> </text>
				<text transform="matrix(0.95 0 0 1 56.1255 272.4941)" class="st5 st6 st7">C</text>
				<text transform="matrix(0.95 0 0 1 61.8257 272.4941)" class="st5 st6 st7">arolina</text>
			</g>
		</g>
	</g>
</g>
<g>
	<g>
		<g>
			<defs>
				<rect id="SVGID_103_" x="2.7" y="251.2" width="174" height="11.8"/>
			</defs>
			<clipPath id="SVGID_104_">
				<use xlink:href="#SVGID_103_"  style="overflow:visible;"/>
			</clipPath>
			<g class="st55">
				<text transform="matrix(0.95 0 0 1 58.2725 260.6729)" class="st5 st6 st7">N</text>
				<text transform="matrix(0.95 0 0 1 63.9727 260.6729)" class="st5 st6 st7">e</text>
				<text transform="matrix(0.95 0 0 1 68.7227 260.6729)" class="st5 st6 st7">v</text>
				<text transform="matrix(0.95 0 0 1 73.4727 260.6729)" class="st5 st6 st7">ada</text>
			</g>
		</g>
	</g>
</g>
<g>
	<g>
		<g>
			<defs>
				<rect id="SVGID_105_" x="2.7" y="239.3" width="172.6" height="11.8"/>
			</defs>
			<clipPath id="SVGID_106_">
				<use xlink:href="#SVGID_105_"  style="overflow:visible;"/>
			</clipPath>
			<g class="st56">
				<text transform="matrix(0.95 0 0 1 58.5107 248.8516)" class="st5 st6 st7">Ari</text>
				<text transform="matrix(0.95 0 0 1 68.96 248.8516)" class="st5 st6 st7">z</text>
				<text transform="matrix(0.95 0 0 1 73.71 248.8516)" class="st5 st6 st7">ona</text>
			</g>
		</g>
	</g>
</g>
<g>
	<g>
		<g>
			<defs>
				<rect id="SVGID_107_" x="2.7" y="227.5" width="192.5" height="11.8"/>
			</defs>
			<clipPath id="SVGID_108_">
				<use xlink:href="#SVGID_107_"  style="overflow:visible;"/>
			</clipPath>
			<g class="st57">
				<text transform="matrix(0.95 0 0 1 52.3398 237.0303)" class="st5 st6 st7">W</text>
				<text transform="matrix(0.95 0 0 1 59.9395 237.0303)" class="st5 st6 st7">y</text>
				<text transform="matrix(0.95 0 0 1 64.6895 237.0303)" class="st5 st6 st7">o</text>
				<text transform="matrix(0.95 0 0 1 69.4395 237.0303)" class="st5 st6 st7">m</text>
				<text transform="matrix(0.95 0 0 1 76.0898 237.0303)" class="st5 st6 st7">ing</text>
			</g>
		</g>
	</g>
</g>
<g>
	<g>
		<g>
			<defs>
				<rect id="SVGID_109_" x="2.7" y="215.7" width="186.9" height="11.8"/>
			</defs>
			<clipPath id="SVGID_110_">
				<use xlink:href="#SVGID_109_"  style="overflow:visible;"/>
			</clipPath>
			<g class="st58">
				<text transform="matrix(0.95 0 0 1 54.2354 225.209)" class="st5 st6 st7">Alaba</text>
				<text transform="matrix(0.95 0 0 1 76.085 225.209)" class="st5 st6 st7">m</text>
				<text transform="matrix(0.95 0 0 1 82.7354 225.209)" class="st5 st6 st7">a</text>
			</g>
		</g>
	</g>
</g>
<g>
	<g>
		<g>
			<defs>
				<rect id="SVGID_111_" x="2.7" y="203.9" width="212.5" height="11.8"/>
			</defs>
			<clipPath id="SVGID_112_">
				<use xlink:href="#SVGID_111_"  style="overflow:visible;"/>
			</clipPath>
			<g class="st59">
				<text transform="matrix(0.95 0 0 1 45.2056 213.3877)" class="st5 st6 st7">T</text>
				<text transform="matrix(0.95 0 0 1 49.9556 213.3877)" class="st5 st6 st7">enne</text>
				<text transform="matrix(0.95 0 0 1 68.9556 213.3877)" class="st5 st6 st7">ss</text>
				<text transform="matrix(0.95 0 0 1 78.4556 213.3877)" class="st5 st6 st7">ee</text>
			</g>
		</g>
	</g>
</g>
<g>
	<g>
		<g>
			<defs>
				<rect id="SVGID_113_" x="2.7" y="192.1" width="191.1" height="11.8"/>
			</defs>
			<clipPath id="SVGID_114_">
				<use xlink:href="#SVGID_113_"  style="overflow:visible;"/>
			</clipPath>
			<g class="st60">
				<text transform="matrix(0.95 0 0 1 51.623 201.5664)" class="st5 st6 st7">Ken</text>
				<text transform="matrix(0.95 0 0 1 66.8228 201.5664)" class="st5 st6 st7">t</text>
				<text transform="matrix(0.95 0 0 1 69.6729 201.5664)" class="st5 st6 st7">u</text>
				<text transform="matrix(0.95 0 0 1 74.4229 201.5664)" class="st5 st6 st7">ck</text>
				<text transform="matrix(0.95 0 0 1 83.9229 201.5664)" class="st5 st6 st7">y</text>
			</g>
		</g>
	</g>
</g>
<g>
	<g>
		<g>
			<defs>
				<rect id="SVGID_115_" x="2.7" y="180.2" width="195.4" height="11.8"/>
			</defs>
			<clipPath id="SVGID_116_">
				<use xlink:href="#SVGID_115_"  style="overflow:visible;"/>
			</clipPath>
			<g class="st61">
				<text transform="matrix(0.95 0 0 1 50.9058 189.7451)" class="st5 st6 st7">Loui</text>
				<text transform="matrix(0.95 0 0 1 67.0557 189.7451)" class="st5 st6 st7">s</text>
				<text transform="matrix(0.95 0 0 1 71.8057 189.7451)" class="st5 st6 st7">iana</text>
			</g>
		</g>
	</g>
</g>
<g>
	<g>
		<g>
			<defs>
				<rect id="SVGID_117_" x="2.7" y="168.4" width="236.7" height="11.8"/>
			</defs>
			<clipPath id="SVGID_118_">
				<use xlink:href="#SVGID_117_"  style="overflow:visible;"/>
			</clipPath>
			<g class="st62">
				<text transform="matrix(0.95 0 0 1 37.3726 177.9243)" class="st5 st6 st7">W</text>
				<text transform="matrix(0.95 0 0 1 44.9727 177.9243)" class="st5 st6 st7">e</text>
				<text transform="matrix(0.95 0 0 1 49.7227 177.9243)" class="st5 st6 st7">st</text>
				<text transform="matrix(0.95 0 0 1 57.3223 177.9243)" class="st5 st6 st7"> </text>
				<text transform="matrix(0.95 0 0 1 59.2227 177.9243)" class="st5 st6 st7">Virginia</text>
			</g>
		</g>
	</g>
</g>
<g>
	<g>
		<g>
			<defs>
				<rect id="SVGID_119_" x="2.7" y="156.6" width="155.5" height="11.8"/>
			</defs>
			<clipPath id="SVGID_120_">
				<use xlink:href="#SVGID_119_"  style="overflow:visible;"/>
			</clipPath>
			<g class="st63">
				<text transform="matrix(0.95 0 0 1 64.2148 166.103)" class="st5 st6 st7">T</text>
				<text transform="matrix(0.95 0 0 1 68.9648 166.103)" class="st5 st6 st7">e</text>
				<text transform="matrix(0.95 0 0 1 73.7148 166.103)" class="st5 st6 st7">x</text>
				<text transform="matrix(0.95 0 0 1 78.4648 166.103)" class="st5 st6 st7">as</text>
			</g>
		</g>
	</g>
</g>
<g>
	<g>
		<g>
			<defs>
				<rect id="SVGID_121_" x="2.7" y="144.8" width="225.3" height="11.8"/>
			</defs>
			<clipPath id="SVGID_122_">
				<use xlink:href="#SVGID_121_"  style="overflow:visible;"/>
			</clipPath>
			<g class="st64">
				<text transform="matrix(0.95 0 0 1 41.1777 154.2817)" class="st5 st6 st7">N</text>
				<text transform="matrix(0.95 0 0 1 46.877 154.2817)" class="st5 st6 st7">e</text>
				<text transform="matrix(0.95 0 0 1 51.627 154.2817)" class="st5 st6 st7">w</text>
				<text transform="matrix(0.95 0 0 1 57.3271 154.2817)" class="st5 st6 st7 st19"> </text>
				<text transform="matrix(0.95 0 0 1 61.127 154.2817)" class="st5 st6 st7">M</text>
				<text transform="matrix(0.95 0 0 1 67.7773 154.2817)" class="st5 st6 st7">e</text>
				<text transform="matrix(0.95 0 0 1 72.5273 154.2817)" class="st5 st6 st7">x</text>
				<text transform="matrix(0.95 0 0 1 77.2773 154.2817)" class="st5 st6 st7">i</text>
				<text transform="matrix(0.95 0 0 1 79.1777 154.2817)" class="st5 st6 st7">c</text>
				<text transform="matrix(0.95 0 0 1 83.9277 154.2817)" class="st5 st6 st7">o</text>
			</g>
		</g>
	</g>
</g>
<g>
	<g>
		<g>
			<defs>
				<rect id="SVGID_123_" x="2.7" y="133" width="209.6" height="11.8"/>
			</defs>
			<clipPath id="SVGID_124_">
				<use xlink:href="#SVGID_123_"  style="overflow:visible;"/>
			</clipPath>
			<g class="st65">
				<text transform="matrix(0.95 0 0 1 45.6904 142.4604)" class="st5 st6 st7">M</text>
				<text transform="matrix(0.95 0 0 1 52.3398 142.4604)" class="st5 st6 st7">i</text>
				<text transform="matrix(0.95 0 0 1 54.2402 142.4604)" class="st5 st6 st7">ss</text>
				<text transform="matrix(0.95 0 0 1 63.7402 142.4604)" class="st5 st6 st7">i</text>
				<text transform="matrix(0.95 0 0 1 65.6396 142.4604)" class="st5 st6 st7">ss</text>
				<text transform="matrix(0.95 0 0 1 75.1396 142.4604)" class="st5 st6 st7">ippi</text>
			</g>
		</g>
	</g>
</g>
<g>
	<g>
		<g>
			<defs>
				<rect id="SVGID_125_" x="2.7" y="121.1" width="202.5" height="11.8"/>
			</defs>
			<clipPath id="SVGID_126_">
				<use xlink:href="#SVGID_125_"  style="overflow:visible;"/>
			</clipPath>
			<g class="st66">
				<text transform="matrix(0.95 0 0 1 48.7725 130.6392)" class="st5 st6 st7">O</text>
				<text transform="matrix(0.95 0 0 1 55.4229 130.6392)" class="st5 st6 st7">k</text>
				<text transform="matrix(0.95 0 0 1 60.1729 130.6392)" class="st5 st6 st7">laho</text>
				<text transform="matrix(0.95 0 0 1 76.3228 130.6392)" class="st5 st6 st7">m</text>
				<text transform="matrix(0.95 0 0 1 82.9727 130.6392)" class="st5 st6 st7">a</text>
			</g>
		</g>
	</g>
</g>
<g>
	<g>
		<g>
			<defs>
				<rect id="SVGID_127_" x="2.7" y="109.3" width="192.5" height="11.8"/>
			</defs>
			<clipPath id="SVGID_128_">
				<use xlink:href="#SVGID_127_"  style="overflow:visible;"/>
			</clipPath>
			<g class="st67">
				<text transform="matrix(0.95 0 0 1 51.3857 118.8179)" class="st5 st6 st7">Ar</text>
				<text transform="matrix(0.95 0 0 1 59.9355 118.8179)" class="st5 st6 st7">k</text>
				<text transform="matrix(0.95 0 0 1 64.6855 118.8179)" class="st5 st6 st7">an</text>
				<text transform="matrix(0.95 0 0 1 74.1855 118.8179)" class="st5 st6 st7">s</text>
				<text transform="matrix(0.95 0 0 1 78.9355 118.8179)" class="st5 st6 st7">as</text>
			</g>
		</g>
	</g>
</g>
<g>
	<g>
		<g>
			<defs>
				<rect id="SVGID_129_" x="2.7" y="68" width="602.3" height="656"/>
			</defs>
			<clipPath id="SVGID_130_">
				<use xlink:href="#SVGID_129_"  style="overflow:visible;"/>
			</clipPath>
			<rect x="3.2" y="68.5" class="st68" width="601.4" height="655"/>
		</g>
	</g>
	<g>
		<g>
			<defs>
				<rect id="SVGID_131_" x="2.7" y="68" width="602.3" height="656"/>
			</defs>
			<clipPath id="SVGID_132_">
				<use xlink:href="#SVGID_131_"  style="overflow:visible;"/>
			</clipPath>
			<g class="st69">
				<text transform="matrix(0.967 0 0 1 50.2793 95.0142)" class="st70 st6 st71">Teen Birth Rates 2014, Ages 15-19 (per 1,000 girls)</text>
			</g>
		</g>
	</g>
</g>
</svg>
