<?xml version="1.0" encoding="utf-8"?>
<!-- Generator: Adobe Illustrator 20.1.0, SVG Export Plug-In . SVG Version: 6.00 Build 0)  -->
<svg version="1.1" id="Layer_1" xmlns="http://www.w3.org/2000/svg" xmlns:xlink="http://www.w3.org/1999/xlink" x="0px" y="0px"
	 viewBox="0 0 1920 1080" style="enable-background:new 0 0 1920 1080;" xml:space="preserve">
<style type="text/css">
	.st0{clip-path:url(#SVGID_2_);fill:#FFFFFF;fill-opacity:0;}
	.st1{clip-path:url(#SVGID_4_);fill:#FFFFFF;}
	.st2{clip-path:url(#SVGID_6_);fill:none;stroke:#D9D9D9;stroke-linejoin:round;stroke-miterlimit:10;}
	.st3{clip-path:url(#SVGID_8_);fill:none;stroke:#D9D9D9;stroke-linejoin:round;stroke-miterlimit:10;}
	.st4{clip-path:url(#SVGID_10_);fill:none;stroke:#D9D9D9;stroke-linejoin:round;stroke-miterlimit:10;}
	.st5{clip-path:url(#SVGID_12_);fill:none;stroke:#D9D9D9;stroke-linejoin:round;stroke-miterlimit:10;}
	
		.st6{clip-path:url(#SVGID_14_);fill:none;stroke:#B73030;stroke-width:2;stroke-linecap:round;stroke-linejoin:round;stroke-miterlimit:10;}
	.st7{clip-path:url(#SVGID_16_);}
	.st8{fill:#595959;}
	.st9{font-family:'Helvetica';}
	.st10{font-size:21.681px;}
	.st11{clip-path:url(#SVGID_18_);}
	.st12{clip-path:url(#SVGID_20_);}
	.st13{clip-path:url(#SVGID_22_);}
	.st14{clip-path:url(#SVGID_24_);}
	.st15{clip-path:url(#SVGID_26_);}
	.st16{clip-path:url(#SVGID_28_);}
	.st17{clip-path:url(#SVGID_30_);}
	.st18{clip-path:url(#SVGID_32_);}
	.st19{clip-path:url(#SVGID_34_);}
	.st20{clip-path:url(#SVGID_36_);}
	.st21{clip-path:url(#SVGID_38_);}
	.st22{letter-spacing:1;}
	.st23{clip-path:url(#SVGID_40_);}
	.st24{clip-path:url(#SVGID_42_);}
	.st25{clip-path:url(#SVGID_44_);}
	.st26{clip-path:url(#SVGID_46_);}
	.st27{clip-path:url(#SVGID_48_);}
	.st28{clip-path:url(#SVGID_50_);}
	.st29{clip-path:url(#SVGID_52_);}
	.st30{clip-path:url(#SVGID_54_);}
	.st31{clip-path:url(#SVGID_56_);}
	.st32{clip-path:url(#SVGID_58_);}
	.st33{clip-path:url(#SVGID_60_);}
	.st34{clip-path:url(#SVGID_62_);}
	.st35{clip-path:url(#SVGID_64_);}
	.st36{clip-path:url(#SVGID_66_);}
	.st37{clip-path:url(#SVGID_68_);}
	.st38{clip-path:url(#SVGID_70_);}
	.st39{clip-path:url(#SVGID_72_);}
	.st40{clip-path:url(#SVGID_74_);}
	.st41{clip-path:url(#SVGID_76_);}
	.st42{clip-path:url(#SVGID_78_);}
	.st43{clip-path:url(#SVGID_80_);}
	.st44{clip-path:url(#SVGID_82_);}
	.st45{clip-path:url(#SVGID_84_);}
	.st46{clip-path:url(#SVGID_86_);}
	.st47{clip-path:url(#SVGID_88_);}
	.st48{clip-path:url(#SVGID_90_);}
	.st49{clip-path:url(#SVGID_92_);}
	.st50{clip-path:url(#SVGID_94_);}
	.st51{clip-path:url(#SVGID_96_);}
	.st52{clip-path:url(#SVGID_98_);}
	.st53{clip-path:url(#SVGID_100_);}
	.st54{clip-path:url(#SVGID_102_);}
	.st55{clip-path:url(#SVGID_104_);}
	.st56{clip-path:url(#SVGID_106_);}
	.st57{clip-path:url(#SVGID_109_);}
	.st58{clip-path:url(#SVGID_111_);}
	.st59{clip-path:url(#SVGID_113_);}
	.st60{clip-path:url(#SVGID_115_);}
	.st61{clip-path:url(#SVGID_117_);}
	.st62{clip-path:url(#SVGID_119_);}
	.st63{clip-path:url(#SVGID_121_);}
	.st64{clip-path:url(#SVGID_123_);}
	.st65{clip-path:url(#SVGID_125_);}
	.st66{clip-path:url(#SVGID_127_);}
	.st67{clip-path:url(#SVGID_129_);}
	.st68{clip-path:url(#SVGID_131_);}
	.st69{clip-path:url(#SVGID_133_);}
	.st70{clip-path:url(#SVGID_135_);}
	.st71{clip-path:url(#SVGID_137_);}
	.st72{font-size:33.726px;}
	.st73{clip-path:url(#SVGID_139_);fill:none;stroke:#D9D9D9;stroke-linejoin:round;stroke-miterlimit:10;}
	.st74{fill:none;stroke:#FFFFFF;stroke-miterlimit:10;}
</style>
<g>
	<g>
		<g>
			<defs>
				<rect id="SVGID_1_" x="152.7" y="50" width="1650.2" height="958.8"/>
			</defs>
			<clipPath id="SVGID_2_">
				<use xlink:href="#SVGID_1_"  style="overflow:visible;"/>
			</clipPath>
			<rect x="152.7" y="50" class="st0" width="1650.2" height="958.8"/>
		</g>
	</g>
	<g>
		<g>
			<defs>
				<rect id="SVGID_3_" x="152.7" y="50" width="1650.2" height="958.8"/>
			</defs>
			<clipPath id="SVGID_4_">
				<use xlink:href="#SVGID_3_"  style="overflow:visible;"/>
			</clipPath>
			<rect x="152.7" y="52.4" class="st1" width="1650.2" height="956.4"/>
		</g>
	</g>
	<g>
		<g>
			<defs>
				<rect id="SVGID_5_" x="152.7" y="50" width="1650.2" height="958.8"/>
			</defs>
			<clipPath id="SVGID_6_">
				<use xlink:href="#SVGID_5_"  style="overflow:visible;"/>
			</clipPath>
			<path class="st2" d="M214.2,149.9h1558.6 M214.2,219.8h1558.6 M214.2,289.7h1558.6 M214.2,361.9h1558.6 M214.2,431.8h1558.6
				 M214.2,501.7h1558.6 M214.2,571.5h1558.6 M214.2,643.8h1558.6 M214.2,713.6h1558.6"/>
		</g>
	</g>
	<g>
		<g>
			<defs>
				<rect id="SVGID_7_" x="152.7" y="50" width="1650.2" height="958.8"/>
			</defs>
			<clipPath id="SVGID_8_">
				<use xlink:href="#SVGID_7_"  style="overflow:visible;"/>
			</clipPath>
			<line class="st3" x1="214.2" y1="783.5" x2="1772.8" y2="783.5"/>
		</g>
	</g>
	<g>
		<g>
			<defs>
				<rect id="SVGID_9_" x="152.7" y="50" width="1650.2" height="958.8"/>
			</defs>
			<clipPath id="SVGID_10_">
				<use xlink:href="#SVGID_9_"  style="overflow:visible;"/>
			</clipPath>
			<path class="st4" d="M1772.8,783.5v171 M1741.5,783.5v171 M1710.2,783.5v171 M1678.8,783.5v171 M1647.5,783.5v171 M1616.2,783.5
				v171 M1584.9,783.5v171 M1553.6,783.5v171 M1522.3,783.5v171 M1490.9,783.5v171 M1459.6,783.5v171 M1428.3,783.5v171 M1397,783.5
				v171 M1365.7,783.5v171 M1334.4,783.5v171 M1303,783.5v171 M1274.1,783.5v171 M1242.8,783.5v171 M1211.5,783.5v171 M1180.2,783.5
				v171 M1148.9,783.5v171 M1117.5,783.5v171 M1086.2,783.5v171 M1054.9,783.5v171 M1023.6,783.5v171 M992.3,783.5v171 M961,783.5
				v171 M929.6,783.5v171 M898.3,783.5v171 M867,783.5v171 M835.7,783.5v171 M806.8,783.5v171 M775.5,783.5v171 M744.1,783.5v171
				 M712.8,783.5v171 M681.5,783.5v171 M650.2,783.5v171 M618.9,783.5v171 M587.6,783.5v171 M556.2,783.5v171 M524.9,783.5v171
				 M493.6,783.5v171 M462.3,783.5v171 M431,783.5v171 M399.7,783.5v171 M368.3,783.5v171 M339.4,783.5v171 M308.1,783.5v171
				 M276.8,783.5v171 M245.5,783.5v171 M214.2,783.5v171"/>
		</g>
	</g>
	<g>
		<g>
			<defs>
				<rect id="SVGID_11_" x="152.7" y="50" width="1650.2" height="958.8"/>
			</defs>
			<clipPath id="SVGID_12_">
				<use xlink:href="#SVGID_11_"  style="overflow:visible;"/>
			</clipPath>
			<path class="st5" d="M1772.8,954.5v43.4 M1741.5,954.5v43.4 M1710.2,954.5v43.4 M1678.8,954.5v43.4 M1647.5,954.5v43.4
				 M1616.2,954.5v43.4 M1584.9,954.5v43.4 M1553.6,954.5v43.4 M1522.3,954.5v43.4 M1490.9,954.5v43.4 M1459.6,954.5v43.4
				 M1428.3,954.5v43.4 M1397,954.5v43.4 M1365.7,954.5v43.4 M1334.4,954.5v43.4 M1303,954.5v43.4 M1274.1,954.5v43.4 M1242.8,954.5
				v43.4 M1211.5,954.5v43.4 M1180.2,954.5v43.4 M1148.9,954.5v43.4 M1117.5,954.5v43.4 M1086.2,954.5v43.4 M1054.9,954.5v43.4
				 M1023.6,954.5v43.4 M992.3,954.5v43.4 M961,954.5v43.4 M929.6,954.5v43.4 M898.3,954.5v43.4 M867,954.5v43.4 M835.7,954.5v43.4
				 M806.8,954.5v43.4 M775.5,954.5v43.4 M744.1,954.5v43.4 M712.8,954.5v43.4 M681.5,954.5v43.4 M650.2,954.5v43.4 M618.9,954.5
				v43.4 M587.6,954.5v43.4 M556.2,954.5v43.4 M524.9,954.5v43.4 M493.6,954.5v43.4 M462.3,954.5v43.4 M431,954.5v43.4 M399.7,954.5
				v43.4 M368.3,954.5v43.4 M339.4,954.5v43.4 M308.1,954.5v43.4 M276.8,954.5v43.4 M245.5,954.5v43.4 M214.2,954.5v43.4"/>
		</g>
	</g>
</g>
<g>
	<g>
		<g>
			<defs>
				<rect id="SVGID_13_" x="213" y="148.7" width="1558.6" height="636"/>
			</defs>
			<clipPath id="SVGID_14_">
				<use xlink:href="#SVGID_13_"  style="overflow:visible;"/>
			</clipPath>
			<polyline class="st6" points="229.8,635.4 261.1,628.1 292.5,620.9 323.8,599.2 355.1,582.4 384,565.5 415.3,560.7 446.6,555.9 
				478,551 509.3,531.8 540.6,529.4 571.9,524.5 603.2,514.9 634.5,512.5 665.9,510.1 697.2,505.3 728.5,502.9 759.8,498 
				791.1,490.8 822.4,486 851.3,486 882.7,471.5 914,466.7 945.3,461.9 976.6,457.1 1007.9,457.1 1039.3,447.4 1070.6,430.6 
				1101.9,418.5 1133.2,413.7 1164.5,411.3 1195.8,399.3 1227.2,394.5 1258.5,392 1289.8,389.6 1318.7,382.4 1350,382.4 
				1381.3,382.4 1412.6,363.1 1444,358.3 1475.3,331.8 1506.6,319.8 1537.9,286 1569.2,278.8 1600.5,266.8 1631.9,249.9 
				1663.2,249.9 1694.5,247.5 1725.8,240.3 1757.1,225.8 			"/>
		</g>
	</g>
</g>
<g>
	<g>
		<g>
			<defs>
				<rect id="SVGID_15_" x="152.7" y="50" width="1650.2" height="958.8"/>
			</defs>
			<clipPath id="SVGID_16_">
				<use xlink:href="#SVGID_15_"  style="overflow:visible;"/>
			</clipPath>
			<g class="st7">
				<text transform="matrix(1 0 0 1 181.6719 792.2539)" class="st8 st9 st10">0</text>
			</g>
		</g>
	</g>
	<g>
		<g>
			<defs>
				<rect id="SVGID_17_" x="152.7" y="50" width="1650.2" height="958.8"/>
			</defs>
			<clipPath id="SVGID_18_">
				<use xlink:href="#SVGID_17_"  style="overflow:visible;"/>
			</clipPath>
			<g class="st11">
				<text transform="matrix(1 0 0 1 181.6719 721.7969)" class="st8 st9 st10">5</text>
			</g>
		</g>
	</g>
	<g>
		<g>
			<defs>
				<rect id="SVGID_19_" x="152.7" y="50" width="1650.2" height="958.8"/>
			</defs>
			<clipPath id="SVGID_20_">
				<use xlink:href="#SVGID_19_"  style="overflow:visible;"/>
			</clipPath>
			<g class="st12">
				<text transform="matrix(1 0 0 1 168.4102 651.3398)" class="st8 st9 st10">10</text>
			</g>
		</g>
	</g>
	<g>
		<g>
			<defs>
				<rect id="SVGID_21_" x="152.7" y="50" width="1650.2" height="958.8"/>
			</defs>
			<clipPath id="SVGID_22_">
				<use xlink:href="#SVGID_21_"  style="overflow:visible;"/>
			</clipPath>
			<g class="st13">
				<text transform="matrix(1 0 0 1 168.4102 580.8848)" class="st8 st9 st10">15</text>
			</g>
		</g>
	</g>
	<g>
		<g>
			<defs>
				<rect id="SVGID_23_" x="152.7" y="50" width="1650.2" height="958.8"/>
			</defs>
			<clipPath id="SVGID_24_">
				<use xlink:href="#SVGID_23_"  style="overflow:visible;"/>
			</clipPath>
			<g class="st14">
				<text transform="matrix(1 0 0 1 168.4102 510.4277)" class="st8 st9 st10">20</text>
			</g>
		</g>
	</g>
	<g>
		<g>
			<defs>
				<rect id="SVGID_25_" x="152.7" y="50" width="1650.2" height="958.8"/>
			</defs>
			<clipPath id="SVGID_26_">
				<use xlink:href="#SVGID_25_"  style="overflow:visible;"/>
			</clipPath>
			<g class="st15">
				<text transform="matrix(1 0 0 1 168.4102 439.9717)" class="st8 st9 st10">25</text>
			</g>
		</g>
	</g>
	<g>
		<g>
			<defs>
				<rect id="SVGID_27_" x="152.7" y="50" width="1650.2" height="958.8"/>
			</defs>
			<clipPath id="SVGID_28_">
				<use xlink:href="#SVGID_27_"  style="overflow:visible;"/>
			</clipPath>
			<g class="st16">
				<text transform="matrix(1 0 0 1 168.4102 369.5156)" class="st8 st9 st10">30</text>
			</g>
		</g>
	</g>
	<g>
		<g>
			<defs>
				<rect id="SVGID_29_" x="152.7" y="50" width="1650.2" height="958.8"/>
			</defs>
			<clipPath id="SVGID_30_">
				<use xlink:href="#SVGID_29_"  style="overflow:visible;"/>
			</clipPath>
			<g class="st17">
				<text transform="matrix(1 0 0 1 168.4102 299.0596)" class="st8 st9 st10">35</text>
			</g>
		</g>
	</g>
	<g>
		<g>
			<defs>
				<rect id="SVGID_31_" x="152.7" y="50" width="1650.2" height="958.8"/>
			</defs>
			<clipPath id="SVGID_32_">
				<use xlink:href="#SVGID_31_"  style="overflow:visible;"/>
			</clipPath>
			<g class="st18">
				<text transform="matrix(1 0 0 1 168.4102 228.6035)" class="st8 st9 st10">40</text>
			</g>
		</g>
	</g>
	<g>
		<g>
			<defs>
				<rect id="SVGID_33_" x="152.7" y="50" width="1650.2" height="958.8"/>
			</defs>
			<clipPath id="SVGID_34_">
				<use xlink:href="#SVGID_33_"  style="overflow:visible;"/>
			</clipPath>
			<g class="st19">
				<text transform="matrix(1 0 0 1 168.4102 158.1475)" class="st8 st9 st10">45</text>
			</g>
		</g>
	</g>
</g>
<g>
	<g>
		<g>
			<defs>
				<rect id="SVGID_35_" x="213.7" y="363.8" width="31.2" height="644.9"/>
			</defs>
			<clipPath id="SVGID_36_">
				<use xlink:href="#SVGID_35_"  style="overflow:visible;"/>
			</clipPath>
			<g class="st20">
				<text transform="matrix(0 -1 1 0 237.9912 946.8047)" class="st8 st9 st10">M</text>
				<text transform="matrix(0 -1 1 0 237.9912 929.9043)" class="st8 st9 st10">a</text>
				<text transform="matrix(0 -1 1 0 237.9912 917.9043)" class="st8 st9 st10">ss</text>
				<text transform="matrix(0 -1 1 0 237.9912 893.8047)" class="st8 st9 st10">a</text>
				<text transform="matrix(0 -1 1 0 237.9912 881.8047)" class="st8 st9 st10">c</text>
				<text transform="matrix(0 -1 1 0 237.9912 869.7031)" class="st8 st9 st10">hu</text>
				<text transform="matrix(0 -1 1 0 237.9912 845.6035)" class="st8 st9 st10">s</text>
				<text transform="matrix(0 -1 1 0 237.9912 833.6035)" class="st8 st9 st10">e</text>
				<text transform="matrix(0 -1 1 0 237.9912 821.5039)" class="st8 st9 st10">tt</text>
				<text transform="matrix(0 -1 1 0 237.9912 807.1035)" class="st8 st9 st10">s</text>
			</g>
		</g>
	</g>
</g>
<g>
	<g>
		<g>
			<defs>
				<rect id="SVGID_37_" x="244.9" y="335" width="31.2" height="673.8"/>
			</defs>
			<clipPath id="SVGID_38_">
				<use xlink:href="#SVGID_37_"  style="overflow:visible;"/>
			</clipPath>
			<g class="st21">
				<text transform="matrix(0 -1 1 0 269.1475 951.6211)" class="st8 st9 st10">N</text>
				<text transform="matrix(0 -1 1 0 269.1475 937.1211)" class="st8 st9 st10">e</text>
				<text transform="matrix(0 -1 1 0 269.1475 925.1211)" class="st8 st9 st10">w</text>
				<text transform="matrix(0 -1 1 0 269.1475 910.6211)" class="st8 st9 st10 st22"> </text>
				<text transform="matrix(0 -1 1 0 269.1475 901.0215)" class="st8 st9 st10">H</text>
				<text transform="matrix(0 -1 1 0 269.1475 886.5215)" class="st8 st9 st10">a</text>
				<text transform="matrix(0 -1 1 0 269.1475 874.5215)" class="st8 st9 st10">m</text>
				<text transform="matrix(0 -1 1 0 269.1475 857.6211)" class="st8 st9 st10">p</text>
				<text transform="matrix(0 -1 1 0 269.1475 845.5215)" class="st8 st9 st10">s</text>
				<text transform="matrix(0 -1 1 0 269.1475 833.5215)" class="st8 st9 st10">hire</text>
			</g>
		</g>
	</g>
</g>
<g>
	<g>
		<g>
			<defs>
				<rect id="SVGID_39_" x="276.1" y="454.1" width="31.2" height="554.6"/>
			</defs>
			<clipPath id="SVGID_40_">
				<use xlink:href="#SVGID_39_"  style="overflow:visible;"/>
			</clipPath>
			<g class="st23">
				<text transform="matrix(0 -1 1 0 300.3047 914.8945)" class="st8 st9 st10">C</text>
				<text transform="matrix(0 -1 1 0 300.3047 900.3945)" class="st8 st9 st10">onne</text>
				<text transform="matrix(0 -1 1 0 300.3047 852.1953)" class="st8 st9 st10">ct</text>
				<text transform="matrix(0 -1 1 0 300.3047 832.9941)" class="st8 st9 st10">i</text>
				<text transform="matrix(0 -1 1 0 300.3047 828.0938)" class="st8 st9 st10">c</text>
				<text transform="matrix(0 -1 1 0 300.3047 816.0938)" class="st8 st9 st10">ut</text>
			</g>
		</g>
	</g>
</g>
<g>
	<g>
		<g>
			<defs>
				<rect id="SVGID_41_" x="307.2" y="457.9" width="31.2" height="550.9"/>
			</defs>
			<clipPath id="SVGID_42_">
				<use xlink:href="#SVGID_41_"  style="overflow:visible;"/>
			</clipPath>
			<g class="st24">
				<text transform="matrix(0 -1 1 0 331.4619 914.2656)" class="st8 st9 st10">N</text>
				<text transform="matrix(0 -1 1 0 331.4619 899.7656)" class="st8 st9 st10">e</text>
				<text transform="matrix(0 -1 1 0 331.4619 887.7656)" class="st8 st9 st10">w</text>
				<text transform="matrix(0 -1 1 0 331.4619 873.2656)" class="st8 st9 st10 st22"> </text>
				<text transform="matrix(0 -1 1 0 331.4619 863.666)" class="st8 st9 st10">J</text>
				<text transform="matrix(0 -1 1 0 331.4619 851.666)" class="st8 st9 st10">er</text>
				<text transform="matrix(0 -1 1 0 331.4619 832.3672)" class="st8 st9 st10">s</text>
				<text transform="matrix(0 -1 1 0 331.4619 820.2656)" class="st8 st9 st10">ey</text>
			</g>
		</g>
	</g>
</g>
<g>
	<g>
		<g>
			<defs>
				<rect id="SVGID_43_" x="338.4" y="551.8" width="31.2" height="456.9"/>
			</defs>
			<clipPath id="SVGID_44_">
				<use xlink:href="#SVGID_43_"  style="overflow:visible;"/>
			</clipPath>
			<g class="st25">
				<text transform="matrix(0 -1 1 0 362.6182 879.3379)" class="st8 st9 st10">Ver</text>
				<text transform="matrix(0 -1 1 0 362.6182 845.6387)" class="st8 st9 st10">m</text>
				<text transform="matrix(0 -1 1 0 362.6182 828.7383)" class="st8 st9 st10">ont</text>
			</g>
		</g>
	</g>
</g>
<g>
	<g>
		<g>
			<defs>
				<rect id="SVGID_45_" x="369.5" y="497.5" width="31.2" height="511.2"/>
			</defs>
			<clipPath id="SVGID_46_">
				<use xlink:href="#SVGID_45_"  style="overflow:visible;"/>
			</clipPath>
			<g class="st26">
				<text transform="matrix(0 -1 1 0 393.7744 898.0195)" class="st8 st9 st10">M</text>
				<text transform="matrix(0 -1 1 0 393.7744 881.1191)" class="st8 st9 st10">inne</text>
				<text transform="matrix(0 -1 1 0 393.7744 840.1191)" class="st8 st9 st10">s</text>
				<text transform="matrix(0 -1 1 0 393.7744 828.1191)" class="st8 st9 st10">o</text>
				<text transform="matrix(0 -1 1 0 393.7744 816.1191)" class="st8 st9 st10">t</text>
				<text transform="matrix(0 -1 1 0 393.7744 808.8203)" class="st8 st9 st10">a</text>
			</g>
		</g>
	</g>
</g>
<g>
	<g>
		<g>
			<defs>
				<rect id="SVGID_47_" x="400.7" y="414.3" width="31.2" height="594.4"/>
			</defs>
			<clipPath id="SVGID_48_">
				<use xlink:href="#SVGID_47_"  style="overflow:visible;"/>
			</clipPath>
			<g class="st27">
				<text transform="matrix(0 -1 1 0 424.9326 926.3496)" class="st8 st9 st10">R</text>
				<text transform="matrix(0 -1 1 0 424.9326 911.8496)" class="st8 st9 st10">hode</text>
				<text transform="matrix(0 -1 1 0 424.9326 863.6504)" class="st8 st9 st10"> Is</text>
				<text transform="matrix(0 -1 1 0 424.9326 837.1504)" class="st8 st9 st10">land</text>
			</g>
		</g>
	</g>
</g>
<g>
	<g>
		<g>
			<defs>
				<rect id="SVGID_49_" x="431.8" y="515.7" width="31.2" height="493.1"/>
			</defs>
			<clipPath id="SVGID_50_">
				<use xlink:href="#SVGID_49_"  style="overflow:visible;"/>
			</clipPath>
			<g class="st28">
				<text transform="matrix(0 -1 1 0 456.0879 892.5859)" class="st8 st9 st10">N</text>
				<text transform="matrix(0 -1 1 0 456.0879 878.0859)" class="st8 st9 st10">e</text>
				<text transform="matrix(0 -1 1 0 456.0879 866.0859)" class="st8 st9 st10">w</text>
				<text transform="matrix(0 -1 1 0 456.0879 851.5859)" class="st8 st9 st10 st22"> </text>
				<text transform="matrix(0 -1 1 0 456.0879 841.9863)" class="st8 st9 st10">York</text>
			</g>
		</g>
	</g>
</g>
<g>
	<g>
		<g>
			<defs>
				<rect id="SVGID_51_" x="463" y="620.5" width="31.2" height="388.3"/>
			</defs>
			<clipPath id="SVGID_52_">
				<use xlink:href="#SVGID_51_"  style="overflow:visible;"/>
			</clipPath>
			<g class="st29">
				<text transform="matrix(0 -1 1 0 487.2461 855.8477)" class="st8 st9 st10">M</text>
				<text transform="matrix(0 -1 1 0 487.2461 838.9492)" class="st8 st9 st10">aine</text>
			</g>
		</g>
	</g>
</g>
<g>
	<g>
		<g>
			<defs>
				<rect id="SVGID_53_" x="494.2" y="530.1" width="31.2" height="478.6"/>
			</defs>
			<clipPath id="SVGID_54_">
				<use xlink:href="#SVGID_53_"  style="overflow:visible;"/>
			</clipPath>
			<g class="st30">
				<text transform="matrix(0 -1 1 0 518.4023 887.7695)" class="st8 st9 st10">M</text>
				<text transform="matrix(0 -1 1 0 518.4023 870.8691)" class="st8 st9 st10">ar</text>
				<text transform="matrix(0 -1 1 0 518.4023 851.668)" class="st8 st9 st10">y</text>
				<text transform="matrix(0 -1 1 0 518.4023 839.5684)" class="st8 st9 st10">land</text>
			</g>
		</g>
	</g>
</g>
<g>
	<g>
		<g>
			<defs>
				<rect id="SVGID_55_" x="525.3" y="501.2" width="31.2" height="507.5"/>
			</defs>
			<clipPath id="SVGID_56_">
				<use xlink:href="#SVGID_55_"  style="overflow:visible;"/>
			</clipPath>
			<g class="st31">
				<text transform="matrix(0 -1 1 0 549.5586 897.4062)" class="st8 st9 st10">W</text>
				<text transform="matrix(0 -1 1 0 549.5586 878.1055)" class="st8 st9 st10">i</text>
				<text transform="matrix(0 -1 1 0 549.5586 873.3047)" class="st8 st9 st10">sc</text>
				<text transform="matrix(0 -1 1 0 549.5586 849.2051)" class="st8 st9 st10">on</text>
				<text transform="matrix(0 -1 1 0 549.5586 825.1055)" class="st8 st9 st10">s</text>
				<text transform="matrix(0 -1 1 0 549.5586 813.1055)" class="st8 st9 st10">in</text>
			</g>
		</g>
	</g>
</g>
<g>
	<g>
		<g>
			<defs>
				<rect id="SVGID_57_" x="556.5" y="580.7" width="31.2" height="428.1"/>
			</defs>
			<clipPath id="SVGID_58_">
				<use xlink:href="#SVGID_57_"  style="overflow:visible;"/>
			</clipPath>
			<g class="st32">
				<text transform="matrix(0 -1 1 0 580.7158 869.7148)" class="st8 st9 st10">Virginia</text>
			</g>
		</g>
	</g>
</g>
<g>
	<g>
		<g>
			<defs>
				<rect id="SVGID_59_" x="587.6" y="454.1" width="31.2" height="554.6"/>
			</defs>
			<clipPath id="SVGID_60_">
				<use xlink:href="#SVGID_59_"  style="overflow:visible;"/>
			</clipPath>
			<g class="st33">
				<text transform="matrix(0 -1 1 0 611.873 912.4863)" class="st8 st9 st10">W</text>
				<text transform="matrix(0 -1 1 0 611.873 893.1855)" class="st8 st9 st10">a</text>
				<text transform="matrix(0 -1 1 0 611.873 881.0859)" class="st8 st9 st10">s</text>
				<text transform="matrix(0 -1 1 0 611.873 869.0859)" class="st8 st9 st10">hing</text>
				<text transform="matrix(0 -1 1 0 611.873 828.0859)" class="st8 st9 st10">t</text>
				<text transform="matrix(0 -1 1 0 611.873 820.8867)" class="st8 st9 st10">on</text>
			</g>
		</g>
	</g>
</g>
<g>
	<g>
		<g>
			<defs>
				<rect id="SVGID_61_" x="618.8" y="410.7" width="31.2" height="598"/>
			</defs>
			<clipPath id="SVGID_62_">
				<use xlink:href="#SVGID_61_"  style="overflow:visible;"/>
			</clipPath>
			<g class="st34">
				<text transform="matrix(0 -1 1 0 643.0303 929.3613)" class="st8 st9 st10">Penn</text>
				<text transform="matrix(0 -1 1 0 643.0303 878.7617)" class="st8 st9 st10">sy</text>
				<text transform="matrix(0 -1 1 0 643.0303 854.6621)" class="st8 st9 st10">l</text>
				<text transform="matrix(0 -1 1 0 643.0303 849.8613)" class="st8 st9 st10">v</text>
				<text transform="matrix(0 -1 1 0 643.0303 837.8613)" class="st8 st9 st10">ania</text>
			</g>
		</g>
	</g>
</g>
<g>
	<g>
		<g>
			<defs>
				<rect id="SVGID_63_" x="649.9" y="660.2" width="31.2" height="320.6"/>
			</defs>
			<clipPath id="SVGID_64_">
				<use xlink:href="#SVGID_63_"  style="overflow:visible;"/>
			</clipPath>
			<g class="st35">
				<text transform="matrix(0 -1 1 0 674.1865 844.4062)" class="st8 st9 st10">U</text>
				<text transform="matrix(0 -1 1 0 674.1865 829.9062)" class="st8 st9 st10">t</text>
				<text transform="matrix(0 -1 1 0 674.1865 822.707)" class="st8 st9 st10">ah</text>
			</g>
		</g>
	</g>
</g>
<g>
	<g>
		<g>
			<defs>
				<rect id="SVGID_65_" x="681.1" y="660.2" width="31.2" height="320.6"/>
			</defs>
			<clipPath id="SVGID_66_">
				<use xlink:href="#SVGID_65_"  style="overflow:visible;"/>
			</clipPath>
			<g class="st36">
				<text transform="matrix(0 -1 1 0 705.3428 844.4062)" class="st8 st9 st10">I</text>
				<text transform="matrix(0 -1 1 0 705.3428 837.207)" class="st8 st9 st10">o</text>
				<text transform="matrix(0 -1 1 0 705.3428 825.1074)" class="st8 st9 st10">w</text>
				<text transform="matrix(0 -1 1 0 705.3428 810.707)" class="st8 st9 st10">a</text>
			</g>
		</g>
	</g>
</g>
<g>
	<g>
		<g>
			<defs>
				<rect id="SVGID_67_" x="712.3" y="580.7" width="31.2" height="428.1"/>
			</defs>
			<clipPath id="SVGID_68_">
				<use xlink:href="#SVGID_67_"  style="overflow:visible;"/>
			</clipPath>
			<g class="st37">
				<text transform="matrix(0 -1 1 0 736.5 869.7148)" class="st8 st9 st10">Oregon</text>
			</g>
		</g>
	</g>
</g>
<g>
	<g>
		<g>
			<defs>
				<rect id="SVGID_69_" x="743.4" y="533.7" width="31.2" height="475.1"/>
			</defs>
			<clipPath id="SVGID_70_">
				<use xlink:href="#SVGID_69_"  style="overflow:visible;"/>
			</clipPath>
			<g class="st38">
				<text transform="matrix(0 -1 1 0 767.6572 884.7695)" class="st8 st9 st10">C</text>
				<text transform="matrix(0 -1 1 0 767.6572 870.2695)" class="st8 st9 st10">olorado</text>
			</g>
		</g>
	</g>
</g>
<g>
	<g>
		<g>
			<defs>
				<rect id="SVGID_71_" x="774.6" y="522.9" width="31.2" height="485.9"/>
			</defs>
			<clipPath id="SVGID_72_">
				<use xlink:href="#SVGID_71_"  style="overflow:visible;"/>
			</clipPath>
			<g class="st39">
				<text transform="matrix(0 -1 1 0 798.8135 888.9863)" class="st8 st9 st10">D</text>
				<text transform="matrix(0 -1 1 0 798.8135 874.4863)" class="st8 st9 st10">ela</text>
				<text transform="matrix(0 -1 1 0 798.8135 845.5859)" class="st8 st9 st10">w</text>
				<text transform="matrix(0 -1 1 0 798.8135 831.0859)" class="st8 st9 st10">are</text>
			</g>
		</g>
	</g>
</g>
<g>
	<g>
		<g>
			<defs>
				<rect id="SVGID_73_" x="805.7" y="522.9" width="31.2" height="485.9"/>
			</defs>
			<clipPath id="SVGID_74_">
				<use xlink:href="#SVGID_73_"  style="overflow:visible;"/>
			</clipPath>
			<g class="st40">
				<text transform="matrix(0 -1 1 0 829.9697 888.9863)" class="st8 st9 st10">C</text>
				<text transform="matrix(0 -1 1 0 829.9697 874.4863)" class="st8 st9 st10">ali</text>
				<text transform="matrix(0 -1 1 0 829.9697 852.7871)" class="st8 st9 st10">f</text>
				<text transform="matrix(0 -1 1 0 829.9697 845.5859)" class="st8 st9 st10">ornia</text>
			</g>
		</g>
	</g>
</g>
<g>
	<g>
		<g>
			<defs>
				<rect id="SVGID_75_" x="836.9" y="537.3" width="31.2" height="471.4"/>
			</defs>
			<clipPath id="SVGID_76_">
				<use xlink:href="#SVGID_75_"  style="overflow:visible;"/>
			</clipPath>
			<g class="st41">
				<text transform="matrix(0 -1 1 0 861.1279 884.1699)" class="st8 st9 st10">M</text>
				<text transform="matrix(0 -1 1 0 861.1279 867.2695)" class="st8 st9 st10">i</text>
				<text transform="matrix(0 -1 1 0 861.1279 862.4707)" class="st8 st9 st10">c</text>
				<text transform="matrix(0 -1 1 0 861.1279 850.4707)" class="st8 st9 st10">higan</text>
			</g>
		</g>
	</g>
</g>
<g>
	<g>
		<g>
			<defs>
				<rect id="SVGID_77_" x="868" y="519.3" width="31.2" height="489.5"/>
			</defs>
			<clipPath id="SVGID_78_">
				<use xlink:href="#SVGID_77_"  style="overflow:visible;"/>
			</clipPath>
			<g class="st42">
				<text transform="matrix(0 -1 1 0 892.2852 891.9961)" class="st8 st9 st10">N</text>
				<text transform="matrix(0 -1 1 0 892.2852 877.4961)" class="st8 st9 st10">ebra</text>
				<text transform="matrix(0 -1 1 0 892.2852 834.0977)" class="st8 st9 st10">sk</text>
				<text transform="matrix(0 -1 1 0 892.2852 810.0977)" class="st8 st9 st10">a</text>
			</g>
		</g>
	</g>
</g>
<g>
	<g>
		<g>
			<defs>
				<rect id="SVGID_79_" x="899.2" y="598.8" width="31.2" height="409.9"/>
			</defs>
			<clipPath id="SVGID_80_">
				<use xlink:href="#SVGID_79_"  style="overflow:visible;"/>
			</clipPath>
			<g class="st43">
				<text transform="matrix(0 -1 1 0 923.4414 864.2812)" class="st8 st9 st10">F</text>
				<text transform="matrix(0 -1 1 0 923.4414 852.1816)" class="st8 st9 st10">lorida</text>
			</g>
		</g>
	</g>
</g>
<g>
	<g>
		<g>
			<defs>
				<rect id="SVGID_81_" x="930.4" y="616.9" width="31.2" height="391.9"/>
			</defs>
			<clipPath id="SVGID_82_">
				<use xlink:href="#SVGID_81_"  style="overflow:visible;"/>
			</clipPath>
			<g class="st44">
				<text transform="matrix(0 -1 1 0 954.5977 858.8613)" class="st8 st9 st10">I</text>
				<text transform="matrix(0 -1 1 0 954.5977 851.6602)" class="st8 st9 st10">llinois</text>
			</g>
		</g>
	</g>
</g>
<g>
	<g>
		<g>
			<defs>
				<rect id="SVGID_83_" x="961.5" y="602.4" width="31.2" height="406.3"/>
			</defs>
			<clipPath id="SVGID_84_">
				<use xlink:href="#SVGID_83_"  style="overflow:visible;"/>
			</clipPath>
			<g class="st45">
				<text transform="matrix(0 -1 1 0 985.7549 861.2695)" class="st8 st9 st10">H</text>
				<text transform="matrix(0 -1 1 0 985.7549 846.7695)" class="st8 st9 st10">a</text>
				<text transform="matrix(0 -1 1 0 985.7549 834.7695)" class="st8 st9 st10">w</text>
				<text transform="matrix(0 -1 1 0 985.7549 820.2695)" class="st8 st9 st10">aii</text>
			</g>
		</g>
	</g>
</g>
<g>
	<g>
		<g>
			<defs>
				<rect id="SVGID_85_" x="992.7" y="634.9" width="31.2" height="373.9"/>
			</defs>
			<clipPath id="SVGID_86_">
				<use xlink:href="#SVGID_85_"  style="overflow:visible;"/>
			</clipPath>
			<g class="st46">
				<text transform="matrix(0 -1 1 0 1016.9131 853.4531)" class="st8 st9 st10">I</text>
				<text transform="matrix(0 -1 1 0 1016.9131 846.2539)" class="st8 st9 st10">daho</text>
			</g>
		</g>
	</g>
</g>
<g>
	<g>
		<g>
			<defs>
				<rect id="SVGID_87_" x="1023.8" y="414.4" width="31.2" height="594.3"/>
			</defs>
			<clipPath id="SVGID_88_">
				<use xlink:href="#SVGID_87_"  style="overflow:visible;"/>
			</clipPath>
			<g class="st47">
				<text transform="matrix(0 -1 1 0 1048.0684 926.3281)" class="st8 st9 st10">N</text>
				<text transform="matrix(0 -1 1 0 1048.0684 911.8281)" class="st8 st9 st10">or</text>
				<text transform="matrix(0 -1 1 0 1048.0684 892.6289)" class="st8 st9 st10">t</text>
				<text transform="matrix(0 -1 1 0 1048.0684 885.3281)" class="st8 st9 st10">h</text>
				<text transform="matrix(0 -1 1 0 1048.0684 873.3281)" class="st8 st9 st10"> </text>
				<text transform="matrix(0 -1 1 0 1048.0684 866.1289)" class="st8 st9 st10">D</text>
				<text transform="matrix(0 -1 1 0 1048.0684 851.6289)" class="st8 st9 st10">a</text>
				<text transform="matrix(0 -1 1 0 1048.0684 839.5273)" class="st8 st9 st10">k</text>
				<text transform="matrix(0 -1 1 0 1048.0684 827.5273)" class="st8 st9 st10">o</text>
				<text transform="matrix(0 -1 1 0 1048.0684 815.5273)" class="st8 st9 st10">t</text>
				<text transform="matrix(0 -1 1 0 1048.0684 808.2285)" class="st8 st9 st10">a</text>
			</g>
		</g>
	</g>
</g>
<g>
	<g>
		<g>
			<defs>
				<rect id="SVGID_89_" x="1055" y="660.2" width="31.2" height="320.6"/>
			</defs>
			<clipPath id="SVGID_90_">
				<use xlink:href="#SVGID_89_"  style="overflow:visible;"/>
			</clipPath>
			<g class="st48">
				<text transform="matrix(0 -1 1 0 1079.2246 844.4062)" class="st8 st9 st10">Ohio</text>
			</g>
		</g>
	</g>
</g>
<g>
	<g>
		<g>
			<defs>
				<rect id="SVGID_91_" x="1086.1" y="378.3" width="31.2" height="630.4"/>
			</defs>
			<clipPath id="SVGID_92_">
				<use xlink:href="#SVGID_91_"  style="overflow:visible;"/>
			</clipPath>
			<g class="st49">
				<text transform="matrix(0 -1 1 0 1110.3828 937.166)" class="st8 st9 st10">N</text>
				<text transform="matrix(0 -1 1 0 1110.3828 922.666)" class="st8 st9 st10">or</text>
				<text transform="matrix(0 -1 1 0 1110.3828 903.4668)" class="st8 st9 st10">t</text>
				<text transform="matrix(0 -1 1 0 1110.3828 896.166)" class="st8 st9 st10">h</text>
				<text transform="matrix(0 -1 1 0 1110.3828 884.166)" class="st8 st9 st10"> </text>
				<text transform="matrix(0 -1 1 0 1110.3828 876.9668)" class="st8 st9 st10">C</text>
				<text transform="matrix(0 -1 1 0 1110.3828 862.4668)" class="st8 st9 st10">arolina</text>
			</g>
		</g>
	</g>
</g>
<g>
	<g>
		<g>
			<defs>
				<rect id="SVGID_93_" x="1117.3" y="403.5" width="31.2" height="605.3"/>
			</defs>
			<clipPath id="SVGID_94_">
				<use xlink:href="#SVGID_93_"  style="overflow:visible;"/>
			</clipPath>
			<g class="st50">
				<text transform="matrix(0 -1 1 0 1141.54 930.5645)" class="st8 st9 st10">Sou</text>
				<text transform="matrix(0 -1 1 0 1141.54 891.9648)" class="st8 st9 st10">t</text>
				<text transform="matrix(0 -1 1 0 1141.54 884.7637)" class="st8 st9 st10">h</text>
				<text transform="matrix(0 -1 1 0 1141.54 872.7637)" class="st8 st9 st10"> </text>
				<text transform="matrix(0 -1 1 0 1141.54 867.8652)" class="st8 st9 st10">D</text>
				<text transform="matrix(0 -1 1 0 1141.54 853.4648)" class="st8 st9 st10">a</text>
				<text transform="matrix(0 -1 1 0 1141.54 841.3652)" class="st8 st9 st10">k</text>
				<text transform="matrix(0 -1 1 0 1141.54 829.3652)" class="st8 st9 st10">o</text>
				<text transform="matrix(0 -1 1 0 1141.54 817.2637)" class="st8 st9 st10">t</text>
				<text transform="matrix(0 -1 1 0 1141.54 810.0645)" class="st8 st9 st10">a</text>
			</g>
		</g>
	</g>
</g>
<g>
	<g>
		<g>
			<defs>
				<rect id="SVGID_95_" x="1148.4" y="544.5" width="31.2" height="464.2"/>
			</defs>
			<clipPath id="SVGID_96_">
				<use xlink:href="#SVGID_95_"  style="overflow:visible;"/>
			</clipPath>
			<g class="st51">
				<text transform="matrix(0 -1 1 0 1172.6963 882.9648)" class="st8 st9 st10">M</text>
				<text transform="matrix(0 -1 1 0 1172.6963 866.0645)" class="st8 st9 st10">on</text>
				<text transform="matrix(0 -1 1 0 1172.6963 841.9648)" class="st8 st9 st10">t</text>
				<text transform="matrix(0 -1 1 0 1172.6963 834.7637)" class="st8 st9 st10">ana</text>
			</g>
		</g>
	</g>
</g>
<g>
	<g>
		<g>
			<defs>
				<rect id="SVGID_97_" x="1179.6" y="555.5" width="31.2" height="453.2"/>
			</defs>
			<clipPath id="SVGID_98_">
				<use xlink:href="#SVGID_97_"  style="overflow:visible;"/>
			</clipPath>
			<g class="st52">
				<text transform="matrix(0 -1 1 0 1203.8525 878.7227)" class="st8 st9 st10">M</text>
				<text transform="matrix(0 -1 1 0 1203.8525 861.8242)" class="st8 st9 st10">i</text>
				<text transform="matrix(0 -1 1 0 1203.8525 857.0234)" class="st8 st9 st10">ss</text>
				<text transform="matrix(0 -1 1 0 1203.8525 832.9238)" class="st8 st9 st10">ouri</text>
			</g>
		</g>
	</g>
</g>
<g>
	<g>
		<g>
			<defs>
				<rect id="SVGID_99_" x="1210.8" y="580.7" width="31.2" height="428.1"/>
			</defs>
			<clipPath id="SVGID_100_">
				<use xlink:href="#SVGID_99_"  style="overflow:visible;"/>
			</clipPath>
			<g class="st53">
				<text transform="matrix(0 -1 1 0 1235.0098 872.125)" class="st8 st9 st10">Kan</text>
				<text transform="matrix(0 -1 1 0 1235.0098 833.5254)" class="st8 st9 st10">s</text>
				<text transform="matrix(0 -1 1 0 1235.0098 821.5254)" class="st8 st9 st10">as</text>
			</g>
		</g>
	</g>
</g>
<g>
	<g>
		<g>
			<defs>
				<rect id="SVGID_101_" x="1241.9" y="602.4" width="31.2" height="406.4"/>
			</defs>
			<clipPath id="SVGID_102_">
				<use xlink:href="#SVGID_101_"  style="overflow:visible;"/>
			</clipPath>
			<g class="st54">
				<text transform="matrix(0 -1 1 0 1266.168 863.6914)" class="st8 st9 st10">Ala</text>
				<text transform="matrix(0 -1 1 0 1266.168 832.3926)" class="st8 st9 st10">sk</text>
				<text transform="matrix(0 -1 1 0 1266.168 808.293)" class="st8 st9 st10">a</text>
			</g>
		</g>
	</g>
</g>
<g>
	<g>
		<g>
			<defs>
				<rect id="SVGID_103_" x="1273.1" y="584.2" width="31.2" height="424.5"/>
			</defs>
			<clipPath id="SVGID_104_">
				<use xlink:href="#SVGID_103_"  style="overflow:visible;"/>
			</clipPath>
			<g class="st55">
				<text transform="matrix(0 -1 1 0 1297.3242 869.125)" class="st8 st9 st10">I</text>
				<text transform="matrix(0 -1 1 0 1297.3242 861.9258)" class="st8 st9 st10">ndiana</text>
			</g>
		</g>
	</g>
</g>
<g>
	<g>
		<g>
			<defs>
				<rect id="SVGID_105_" x="1304.2" y="566.2" width="31.2" height="442.5"/>
			</defs>
			<clipPath id="SVGID_106_">
				<use xlink:href="#SVGID_105_"  style="overflow:visible;"/>
			</clipPath>
			<g class="st56">
				<text transform="matrix(0 -1 1 0 1328.4795 874.5332)" class="st8 st9 st10">Georgia</text>
			</g>
		</g>
	</g>
</g>
<g>
	<g>
		<g>
			<defs>
				<rect id="SVGID_108_" x="1335.4" y="367.4" width="31.2" height="641.4"/>
			</defs>
			<clipPath id="SVGID_109_">
				<use xlink:href="#SVGID_108_"  style="overflow:visible;"/>
			</clipPath>
			<g class="st57">
				<text transform="matrix(0 -1 1 0 1359.6377 941.4062)" class="st8 st9 st10">Sou</text>
				<text transform="matrix(0 -1 1 0 1359.6377 902.8066)" class="st8 st9 st10">t</text>
				<text transform="matrix(0 -1 1 0 1359.6377 895.6055)" class="st8 st9 st10">h</text>
				<text transform="matrix(0 -1 1 0 1359.6377 883.6055)" class="st8 st9 st10"> </text>
				<text transform="matrix(0 -1 1 0 1359.6377 878.707)" class="st8 st9 st10">C</text>
				<text transform="matrix(0 -1 1 0 1359.6377 864.3066)" class="st8 st9 st10">arolina</text>
			</g>
		</g>
	</g>
</g>
<g>
	<g>
		<g>
			<defs>
				<rect id="SVGID_110_" x="1366.5" y="573.4" width="31.2" height="435.3"/>
			</defs>
			<clipPath id="SVGID_111_">
				<use xlink:href="#SVGID_110_"  style="overflow:visible;"/>
			</clipPath>
			<g class="st58">
				<text transform="matrix(0 -1 1 0 1390.7939 873.3281)" class="st8 st9 st10">N</text>
				<text transform="matrix(0 -1 1 0 1390.7939 858.8281)" class="st8 st9 st10">e</text>
				<text transform="matrix(0 -1 1 0 1390.7939 846.8281)" class="st8 st9 st10">v</text>
				<text transform="matrix(0 -1 1 0 1390.7939 834.7285)" class="st8 st9 st10">ada</text>
			</g>
		</g>
	</g>
</g>
<g>
	<g>
		<g>
			<defs>
				<rect id="SVGID_112_" x="1397.7" y="577.1" width="31.2" height="431.7"/>
			</defs>
			<clipPath id="SVGID_113_">
				<use xlink:href="#SVGID_112_"  style="overflow:visible;"/>
			</clipPath>
			<g class="st59">
				<text transform="matrix(0 -1 1 0 1421.9512 872.7266)" class="st8 st9 st10">Ari</text>
				<text transform="matrix(0 -1 1 0 1421.9512 846.2266)" class="st8 st9 st10">z</text>
				<text transform="matrix(0 -1 1 0 1421.9512 834.2266)" class="st8 st9 st10">ona</text>
			</g>
		</g>
	</g>
</g>
<g>
	<g>
		<g>
			<defs>
				<rect id="SVGID_114_" x="1428.9" y="526.6" width="31.2" height="482.2"/>
			</defs>
			<clipPath id="SVGID_115_">
				<use xlink:href="#SVGID_114_"  style="overflow:visible;"/>
			</clipPath>
			<g class="st60">
				<text transform="matrix(0 -1 1 0 1453.1074 888.3711)" class="st8 st9 st10">W</text>
				<text transform="matrix(0 -1 1 0 1453.1074 869.0723)" class="st8 st9 st10">y</text>
				<text transform="matrix(0 -1 1 0 1453.1074 857.0723)" class="st8 st9 st10">o</text>
				<text transform="matrix(0 -1 1 0 1453.1074 844.9727)" class="st8 st9 st10">m</text>
				<text transform="matrix(0 -1 1 0 1453.1074 828.0723)" class="st8 st9 st10">ing</text>
			</g>
		</g>
	</g>
</g>
<g>
	<g>
		<g>
			<defs>
				<rect id="SVGID_116_" x="1460" y="540.9" width="31.2" height="467.8"/>
			</defs>
			<clipPath id="SVGID_117_">
				<use xlink:href="#SVGID_116_"  style="overflow:visible;"/>
			</clipPath>
			<g class="st61">
				<text transform="matrix(0 -1 1 0 1484.2637 883.5664)" class="st8 st9 st10">Alaba</text>
				<text transform="matrix(0 -1 1 0 1484.2637 828.0664)" class="st8 st9 st10">m</text>
				<text transform="matrix(0 -1 1 0 1484.2637 811.2676)" class="st8 st9 st10">a</text>
			</g>
		</g>
	</g>
</g>
<g>
	<g>
		<g>
			<defs>
				<rect id="SVGID_118_" x="1491.2" y="475.8" width="31.2" height="533"/>
			</defs>
			<clipPath id="SVGID_119_">
				<use xlink:href="#SVGID_118_"  style="overflow:visible;"/>
			</clipPath>
			<g class="st62">
				<text transform="matrix(0 -1 1 0 1515.4229 906.4648)" class="st8 st9 st10">T</text>
				<text transform="matrix(0 -1 1 0 1515.4229 894.3633)" class="st8 st9 st10">enne</text>
				<text transform="matrix(0 -1 1 0 1515.4229 846.1641)" class="st8 st9 st10">ss</text>
				<text transform="matrix(0 -1 1 0 1515.4229 822.1641)" class="st8 st9 st10">ee</text>
			</g>
		</g>
	</g>
</g>
<g>
	<g>
		<g>
			<defs>
				<rect id="SVGID_120_" x="1522.3" y="530.1" width="31.2" height="478.7"/>
			</defs>
			<clipPath id="SVGID_121_">
				<use xlink:href="#SVGID_120_"  style="overflow:visible;"/>
			</clipPath>
			<g class="st63">
				<text transform="matrix(0 -1 1 0 1546.5791 890.1914)" class="st8 st9 st10">Ken</text>
				<text transform="matrix(0 -1 1 0 1546.5791 851.5918)" class="st8 st9 st10">t</text>
				<text transform="matrix(0 -1 1 0 1546.5791 844.3926)" class="st8 st9 st10">u</text>
				<text transform="matrix(0 -1 1 0 1546.5791 832.3926)" class="st8 st9 st10">ck</text>
				<text transform="matrix(0 -1 1 0 1546.5791 808.293)" class="st8 st9 st10">y</text>
			</g>
		</g>
	</g>
</g>
<g>
	<g>
		<g>
			<defs>
				<rect id="SVGID_122_" x="1553.5" y="519.2" width="31.2" height="489.6"/>
			</defs>
			<clipPath id="SVGID_123_">
				<use xlink:href="#SVGID_122_"  style="overflow:visible;"/>
			</clipPath>
			<g class="st64">
				<text transform="matrix(0 -1 1 0 1577.7344 892.0098)" class="st8 st9 st10">Loui</text>
				<text transform="matrix(0 -1 1 0 1577.7344 851.0098)" class="st8 st9 st10">s</text>
				<text transform="matrix(0 -1 1 0 1577.7344 839.0098)" class="st8 st9 st10">iana</text>
			</g>
		</g>
	</g>
</g>
<g>
	<g>
		<g>
			<defs>
				<rect id="SVGID_124_" x="1584.6" y="414.5" width="31.2" height="594.3"/>
			</defs>
			<clipPath id="SVGID_125_">
				<use xlink:href="#SVGID_124_"  style="overflow:visible;"/>
			</clipPath>
			<g class="st65">
				<text transform="matrix(0 -1 1 0 1608.8906 926.3281)" class="st8 st9 st10">W</text>
				<text transform="matrix(0 -1 1 0 1608.8906 907.0273)" class="st8 st9 st10">e</text>
				<text transform="matrix(0 -1 1 0 1608.8906 894.9277)" class="st8 st9 st10">st</text>
				<text transform="matrix(0 -1 1 0 1608.8906 875.7285)" class="st8 st9 st10"> </text>
				<text transform="matrix(0 -1 1 0 1608.8906 870.9277)" class="st8 st9 st10">Virginia</text>
			</g>
		</g>
	</g>
</g>
<g>
	<g>
		<g>
			<defs>
				<rect id="SVGID_126_" x="1615.8" y="620.5" width="31.2" height="388.3"/>
			</defs>
			<clipPath id="SVGID_127_">
				<use xlink:href="#SVGID_126_"  style="overflow:visible;"/>
			</clipPath>
			<g class="st66">
				<text transform="matrix(0 -1 1 0 1640.0488 858.2598)" class="st8 st9 st10">T</text>
				<text transform="matrix(0 -1 1 0 1640.0488 846.1602)" class="st8 st9 st10">e</text>
				<text transform="matrix(0 -1 1 0 1640.0488 834.1602)" class="st8 st9 st10">x</text>
				<text transform="matrix(0 -1 1 0 1640.0488 822.1602)" class="st8 st9 st10">as</text>
			</g>
		</g>
	</g>
</g>
<g>
	<g>
		<g>
			<defs>
				<rect id="SVGID_128_" x="1647" y="443.4" width="31.2" height="565.3"/>
			</defs>
			<clipPath id="SVGID_129_">
				<use xlink:href="#SVGID_128_"  style="overflow:visible;"/>
			</clipPath>
			<g class="st67">
				<text transform="matrix(0 -1 1 0 1671.2061 916.6777)" class="st8 st9 st10">N</text>
				<text transform="matrix(0 -1 1 0 1671.2061 902.1777)" class="st8 st9 st10">e</text>
				<text transform="matrix(0 -1 1 0 1671.2061 890.1777)" class="st8 st9 st10">w</text>
				<text transform="matrix(0 -1 1 0 1671.2061 875.6777)" class="st8 st9 st10 st22"> </text>
				<text transform="matrix(0 -1 1 0 1671.2061 866.0762)" class="st8 st9 st10">M</text>
				<text transform="matrix(0 -1 1 0 1671.2061 849.1777)" class="st8 st9 st10">e</text>
				<text transform="matrix(0 -1 1 0 1671.2061 837.1777)" class="st8 st9 st10">x</text>
				<text transform="matrix(0 -1 1 0 1671.2061 825.0762)" class="st8 st9 st10">i</text>
				<text transform="matrix(0 -1 1 0 1671.2061 820.2773)" class="st8 st9 st10">c</text>
				<text transform="matrix(0 -1 1 0 1671.2061 808.2773)" class="st8 st9 st10">o</text>
			</g>
		</g>
	</g>
</g>
<g>
	<g>
		<g>
			<defs>
				<rect id="SVGID_130_" x="1678.1" y="483.2" width="31.2" height="525.5"/>
			</defs>
			<clipPath id="SVGID_131_">
				<use xlink:href="#SVGID_130_"  style="overflow:visible;"/>
			</clipPath>
			<g class="st68">
				<text transform="matrix(0 -1 1 0 1702.3623 905.2324)" class="st8 st9 st10">M</text>
				<text transform="matrix(0 -1 1 0 1702.3623 888.332)" class="st8 st9 st10">i</text>
				<text transform="matrix(0 -1 1 0 1702.3623 883.5332)" class="st8 st9 st10">ss</text>
				<text transform="matrix(0 -1 1 0 1702.3623 859.4316)" class="st8 st9 st10">i</text>
				<text transform="matrix(0 -1 1 0 1702.3623 854.6328)" class="st8 st9 st10">ss</text>
				<text transform="matrix(0 -1 1 0 1702.3623 830.6328)" class="st8 st9 st10">ippi</text>
			</g>
		</g>
	</g>
</g>
<g>
	<g>
		<g>
			<defs>
				<rect id="SVGID_132_" x="1709.3" y="501.2" width="31.2" height="507.5"/>
			</defs>
			<clipPath id="SVGID_133_">
				<use xlink:href="#SVGID_132_"  style="overflow:visible;"/>
			</clipPath>
			<g class="st69">
				<text transform="matrix(0 -1 1 0 1733.5186 897.418)" class="st8 st9 st10">O</text>
				<text transform="matrix(0 -1 1 0 1733.5186 880.5195)" class="st8 st9 st10">k</text>
				<text transform="matrix(0 -1 1 0 1733.5186 868.5195)" class="st8 st9 st10">laho</text>
				<text transform="matrix(0 -1 1 0 1733.5186 827.5195)" class="st8 st9 st10">m</text>
				<text transform="matrix(0 -1 1 0 1733.5186 810.6191)" class="st8 st9 st10">a</text>
			</g>
		</g>
	</g>
</g>
<g>
	<g>
		<g>
			<defs>
				<rect id="SVGID_134_" x="1740.4" y="526.5" width="31.2" height="482.3"/>
			</defs>
			<clipPath id="SVGID_135_">
				<use xlink:href="#SVGID_134_"  style="overflow:visible;"/>
			</clipPath>
			<g class="st70">
				<text transform="matrix(0 -1 1 0 1764.6758 890.793)" class="st8 st9 st10">Ar</text>
				<text transform="matrix(0 -1 1 0 1764.6758 869.0938)" class="st8 st9 st10">k</text>
				<text transform="matrix(0 -1 1 0 1764.6758 857.0938)" class="st8 st9 st10">an</text>
				<text transform="matrix(0 -1 1 0 1764.6758 832.9941)" class="st8 st9 st10">s</text>
				<text transform="matrix(0 -1 1 0 1764.6758 820.8945)" class="st8 st9 st10">as</text>
			</g>
		</g>
	</g>
</g>
<g>
	<g>
		<g>
			<defs>
				<rect id="SVGID_136_" x="152.7" y="50" width="1650.2" height="958.8"/>
			</defs>
			<clipPath id="SVGID_137_">
				<use xlink:href="#SVGID_136_"  style="overflow:visible;"/>
			</clipPath>
			<g class="st71">
				<text transform="matrix(1 0 0 1 587.6267 113.781)" class="st8 st9 st72">Teen Birth Rates 2014, Ages 15-19 (per 1,000 girls)</text>
			</g>
		</g>
	</g>
	<g>
		<g>
			<defs>
				<rect id="SVGID_138_" x="152.7" y="50" width="1650.2" height="958.8"/>
			</defs>
			<clipPath id="SVGID_139_">
				<use xlink:href="#SVGID_138_"  style="overflow:visible;"/>
			</clipPath>
			<rect x="153.9" y="51.2" class="st73" width="1647.8" height="956.4"/>
		</g>
	</g>
	<g>
		<rect id="SVGID_107_" x="152.7" y="50" class="st74" width="1650.2" height="958.8"/>
	</g>
</g>
</svg>
