<?xml version="1.0" encoding="utf-8"?>
<!-- Generator: Adobe Illustrator 20.1.0, SVG Export Plug-In . SVG Version: 6.00 Build 0)  -->
<svg version="1.1" id="Layer_1" xmlns="http://www.w3.org/2000/svg" xmlns:xlink="http://www.w3.org/1999/xlink" x="0px" y="0px"
	 viewBox="0 0 1920 1080" style="enable-background:new 0 0 1920 1080;" xml:space="preserve">
<style type="text/css">
	.st0{fill:none;}
	.st1{font-family:'Helvetica';}
	.st2{font-size:48px;}
</style>
<image style="overflow:visible;enable-background:new    ;" width="270" height="588" xlink:href="84DEFB390F4AEDBA.png"  transform="matrix(0.6111 0 0 0.6446 298 520)">
</image>
<image style="overflow:visible;enable-background:new    ;" width="270" height="588" xlink:href="84DEFB390F4AEDBE.png"  transform="matrix(0.6111 0 0 0.6446 863 45)">
</image>
<image style="overflow:visible;enable-background:new    ;" width="270" height="588" xlink:href="84DEFB390F4AEDB9.png"  transform="matrix(0.6111 0 0 0.6446 133 45)">
</image>
<image style="overflow:visible;enable-background:new    ;" width="270" height="588" xlink:href="84DEFB390F4AEDBB.png"  transform="matrix(0.6111 0 0 0.6446 520 45)">
</image>
<image style="overflow:visible;enable-background:new    ;" width="270" height="588" xlink:href="84DEFB390F4AEDB8.png"  transform="matrix(0.6111 0 0 0.6446 1214.5 45)">
</image>
<image style="overflow:visible;enable-background:new    ;" width="270" height="588" xlink:href="84DEFB390F4AEDC6.png"  transform="matrix(0.6111 0 0 0.6446 1396 520)">
</image>
<image style="overflow:visible;enable-background:new    ;" width="270" height="588" xlink:href="84DEFB390F4AEDC9.png"  transform="matrix(0.6111 0 0 0.6446 1561 45)">
</image>
<g id="rrjU2Z.tif">
	
		<image style="overflow:visible;enable-background:new    ;" width="102" height="199" id="Layer_0_1_" xlink:href="84DEFB390F4AEDCA.png"  transform="matrix(1.6275 0 0 1.7789 572 540)">
	</image>
</g>
<rect x="167" y="943" class="st0" width="1567" height="119"/>
<text transform="matrix(1 0 0 1 195.3555 977.5117)" class="st1 st2">In the U.S. about 3 in 10 girls will get pregnant at least once before age </text>
<text transform="matrix(1 0 0 1 370.1555 1035.1117)" class="st1 st2">20. That’s nearly 750,000 teen pregnancies each year.</text>
<g id="rrjU2Z.tif_1_">
	
		<image style="overflow:visible;enable-background:new    ;" width="101" height="202" id="Layer_0_2_" xlink:href="84DEFB390F4AEDC8.png"  transform="matrix(1.6124 0 0 1.7632 838.1456 540)">
	</image>
</g>
<g id="rrjU2Z.tif_2_">
	
		<image style="overflow:visible;enable-background:new    ;" width="101" height="202" id="Layer_0_3_" xlink:href="343A4F3F35D45C3D.png"  transform="matrix(1.5562 0 0 1.7572 1079.8224 540)">
	</image>
</g>
</svg>
