<?xml version="1.0" encoding="utf-8"?>
<!-- Generator: Adobe Illustrator 16.0.4, SVG Export Plug-In . SVG Version: 6.00 Build 0)  -->
<!DOCTYPE svg PUBLIC "-//W3C//DTD SVG 1.1//EN" "http://www.w3.org/Graphics/SVG/1.1/DTD/svg11.dtd">
<svg version="1.1" id="Layer_1" xmlns="http://www.w3.org/2000/svg" xmlns:xlink="http://www.w3.org/1999/xlink" x="0px" y="0px"
	 width="1920px" height="774px" viewBox="0 89.5 1920 774" enable-background="new 0 89.5 1920 774" xml:space="preserve">
<g>
	<g>
		<defs>
			<rect id="SVGID_1_" x="399" y="117" width="1201" height="704.935"/>
		</defs>
		<clipPath id="SVGID_2_">
			<use xlink:href="#SVGID_1_"  overflow="visible"/>
		</clipPath>
		<rect x="399" y="117" clip-path="url(#SVGID_2_)" fill="#FFFFFF" fill-opacity="0" width="1201" height="704.935"/>
	</g>
	<g>
		<defs>
			<rect id="SVGID_3_" x="399" y="117" width="1201" height="704.935"/>
		</defs>
		<clipPath id="SVGID_4_">
			<use xlink:href="#SVGID_3_"  overflow="visible"/>
		</clipPath>
		<rect x="399" y="119.296" clip-path="url(#SVGID_4_)" fill="#FFFFFF" width="1201" height="702.639"/>
	</g>
</g>
<g>
	<g>
		<defs>
			<rect id="SVGID_5_" x="530.496" y="247.884" width="1041.014" height="459.24"/>
		</defs>
		<clipPath id="SVGID_6_">
			<use xlink:href="#SVGID_5_"  overflow="visible"/>
		</clipPath>
		<path clip-path="url(#SVGID_6_)" fill="#3C2415" d="M1310.708,305.289h76.707v401.835h-76.707V305.289z M962.242,346.62h78.897
			v360.504h-78.897V346.62z M615.969,385.655h76.707v321.469h-76.707V385.655z"/>
	</g>
</g>
<g>
	<g>
		<defs>
			<rect id="SVGID_7_" x="530.496" y="247.884" width="1041.014" height="459.24"/>
		</defs>
		<clipPath id="SVGID_8_">
			<use xlink:href="#SVGID_7_"  overflow="visible"/>
		</clipPath>
		<path clip-path="url(#SVGID_8_)" fill="#F26522" d="M1409.33,424.691h76.706v282.433h-76.706V424.691z M1060.865,491.282h78.897
			v215.842h-78.897V491.282z M714.591,475.208h78.898v231.916h-78.898V475.208z"/>
	</g>
</g>
<g>
	<g>
		<defs>
			<rect id="SVGID_9_" x="399" y="117" width="1201" height="704.935"/>
		</defs>
		<clipPath id="SVGID_10_">
			<use xlink:href="#SVGID_9_"  overflow="visible"/>
		</clipPath>
		
			<line clip-path="url(#SVGID_10_)" fill="none" stroke="#D9D9D8" stroke-linejoin="round" stroke-miterlimit="10" x1="531.593" y1="708.271" x2="1572.605" y2="708.271"/>
	</g>
	<g>
		<defs>
			<rect id="SVGID_11_" x="399" y="117" width="1201" height="704.935"/>
		</defs>
		<clipPath id="SVGID_12_">
			<use xlink:href="#SVGID_11_"  overflow="visible"/>
		</clipPath>
		<g clip-path="url(#SVGID_12_)">
			<text transform="matrix(0.9544 0 0 1 462.0752 715.8594)" fill="#5A5A5A" font-family="'HelveticaNeue'" font-size="20.6658">$0</text>
			<text transform="matrix(0.9544 0 0 1 484.0078 715.8594)" fill="#5A5A5A" font-family="'HelveticaNeue'" font-size="20.6658">.</text>
			<text transform="matrix(0.9544 0 0 1 490.5752 715.8594)" fill="#5A5A5A" font-family="'HelveticaNeue'" font-size="20.6658">00</text>
		</g>
	</g>
	<g>
		<defs>
			<rect id="SVGID_13_" x="399" y="117" width="1201" height="704.935"/>
		</defs>
		<clipPath id="SVGID_14_">
			<use xlink:href="#SVGID_13_"  overflow="visible"/>
		</clipPath>
		<g clip-path="url(#SVGID_14_)">
			<text transform="matrix(0.9544 0 0 1 423.1631 624.3477)" fill="#5A5A5A" font-family="'HelveticaNeue'" font-size="20.6658">$5</text>
			<text transform="matrix(0.9544 0 0 1 445.0957 624.3477)" fill="#5A5A5A" font-family="'HelveticaNeue'" font-size="20.6658">,</text>
			<text transform="matrix(0.9544 0 0 1 451.6641 624.3477)" fill="#5A5A5A" font-family="'HelveticaNeue'" font-size="20.6658">000</text>
			<text transform="matrix(0.9544 0 0 1 484.5625 624.3477)" fill="#5A5A5A" font-family="'HelveticaNeue'" font-size="20.6658">.</text>
			<text transform="matrix(0.9544 0 0 1 491.1299 624.3477)" fill="#5A5A5A" font-family="'HelveticaNeue'" font-size="20.6658">00</text>
		</g>
	</g>
	<g>
		<defs>
			<rect id="SVGID_15_" x="399" y="117" width="1201" height="704.935"/>
		</defs>
		<clipPath id="SVGID_16_">
			<use xlink:href="#SVGID_15_"  overflow="visible"/>
		</clipPath>
		<g clip-path="url(#SVGID_16_)">
			<text transform="matrix(0.9544 0 0 1 413.2891 532.834)" fill="#5A5A5A" font-family="'HelveticaNeue'" font-size="20.6658">$10</text>
			<text transform="matrix(0.9544 0 0 1 446.1875 532.834)" fill="#5A5A5A" font-family="'HelveticaNeue'" font-size="20.6658">,</text>
			<text transform="matrix(0.9544 0 0 1 452.7559 532.834)" fill="#5A5A5A" font-family="'HelveticaNeue'" font-size="20.6658">000</text>
			<text transform="matrix(0.9544 0 0 1 485.6543 532.834)" fill="#5A5A5A" font-family="'HelveticaNeue'" font-size="20.6658">.</text>
			<text transform="matrix(0.9544 0 0 1 492.2217 532.834)" fill="#5A5A5A" font-family="'HelveticaNeue'" font-size="20.6658">00</text>
		</g>
	</g>
	<g>
		<defs>
			<rect id="SVGID_17_" x="399" y="117" width="1201" height="704.935"/>
		</defs>
		<clipPath id="SVGID_18_">
			<use xlink:href="#SVGID_17_"  overflow="visible"/>
		</clipPath>
		<g clip-path="url(#SVGID_18_)">
			<text transform="matrix(0.9544 0 0 1 413.2891 441.3213)" fill="#5A5A5A" font-family="'HelveticaNeue'" font-size="20.6658">$15</text>
			<text transform="matrix(0.9544 0 0 1 446.1875 441.3213)" fill="#5A5A5A" font-family="'HelveticaNeue'" font-size="20.6658">,</text>
			<text transform="matrix(0.9544 0 0 1 452.7559 441.3213)" fill="#5A5A5A" font-family="'HelveticaNeue'" font-size="20.6658">000</text>
			<text transform="matrix(0.9544 0 0 1 485.6543 441.3213)" fill="#5A5A5A" font-family="'HelveticaNeue'" font-size="20.6658">.</text>
			<text transform="matrix(0.9544 0 0 1 492.2217 441.3213)" fill="#5A5A5A" font-family="'HelveticaNeue'" font-size="20.6658">00</text>
		</g>
	</g>
	<g>
		<defs>
			<rect id="SVGID_19_" x="399" y="117" width="1201" height="704.935"/>
		</defs>
		<clipPath id="SVGID_20_">
			<use xlink:href="#SVGID_19_"  overflow="visible"/>
		</clipPath>
		<g clip-path="url(#SVGID_20_)">
			<text transform="matrix(0.9544 0 0 1 413.2891 349.8066)" fill="#5A5A5A" font-family="'HelveticaNeue'" font-size="20.6658">$20</text>
			<text transform="matrix(0.9544 0 0 1 446.1875 349.8066)" fill="#5A5A5A" font-family="'HelveticaNeue'" font-size="20.6658">,</text>
			<text transform="matrix(0.9544 0 0 1 452.7559 349.8066)" fill="#5A5A5A" font-family="'HelveticaNeue'" font-size="20.6658">000</text>
			<text transform="matrix(0.9544 0 0 1 485.6543 349.8066)" fill="#5A5A5A" font-family="'HelveticaNeue'" font-size="20.6658">.</text>
			<text transform="matrix(0.9544 0 0 1 492.2217 349.8066)" fill="#5A5A5A" font-family="'HelveticaNeue'" font-size="20.6658">00</text>
		</g>
	</g>
	<g>
		<defs>
			<rect id="SVGID_21_" x="399" y="117" width="1201" height="704.935"/>
		</defs>
		<clipPath id="SVGID_22_">
			<use xlink:href="#SVGID_21_"  overflow="visible"/>
		</clipPath>
		<g clip-path="url(#SVGID_22_)">
			<text transform="matrix(0.9544 0 0 1 413.2891 258.293)" fill="#5A5A5A" font-family="'HelveticaNeue'" font-size="20.6658">$25</text>
			<text transform="matrix(0.9544 0 0 1 446.1875 258.293)" fill="#5A5A5A" font-family="'HelveticaNeue'" font-size="20.6658">,</text>
			<text transform="matrix(0.9544 0 0 1 452.7559 258.293)" fill="#5A5A5A" font-family="'HelveticaNeue'" font-size="20.6658">000</text>
			<text transform="matrix(0.9544 0 0 1 485.6543 258.293)" fill="#5A5A5A" font-family="'HelveticaNeue'" font-size="20.6658">.</text>
			<text transform="matrix(0.9544 0 0 1 492.2217 258.293)" fill="#5A5A5A" font-family="'HelveticaNeue'" font-size="20.6658">00</text>
		</g>
	</g>
	<g>
		<defs>
			<rect id="SVGID_23_" x="399" y="117" width="1201" height="704.935"/>
		</defs>
		<clipPath id="SVGID_24_">
			<use xlink:href="#SVGID_23_"  overflow="visible"/>
		</clipPath>
		<g clip-path="url(#SVGID_24_)">
			<text transform="matrix(0.9544 0 0 1 677.6416 741.3047)" fill="#5A5A5A" font-family="'HelveticaNeue'" font-size="20.6658">B</text>
			<text transform="matrix(0.9544 0 0 1 690.7969 741.3047)" fill="#5A5A5A" font-family="'HelveticaNeue'" font-size="20.6658">l</text>
			<text transform="matrix(0.9544 0 0 1 695.1748 741.3047)" fill="#5A5A5A" font-family="'HelveticaNeue'" font-size="20.6658">ac</text>
			<text transform="matrix(0.9544 0 0 1 717.0684 741.3047)" fill="#5A5A5A" font-family="'HelveticaNeue'" font-size="20.6658">k</text>
		</g>
	</g>
	<g>
		<defs>
			<rect id="SVGID_25_" x="399" y="117" width="1201" height="704.935"/>
		</defs>
		<clipPath id="SVGID_26_">
			<use xlink:href="#SVGID_25_"  overflow="visible"/>
		</clipPath>
		<g clip-path="url(#SVGID_26_)">
			<text transform="matrix(0.9544 0 0 1 1011.4004 741.3047)" fill="#5A5A5A" font-family="'HelveticaNeue'" font-size="20.6658">H</text>
			<text transform="matrix(0.9544 0 0 1 1024.5557 741.3047)" fill="#5A5A5A" font-family="'HelveticaNeue'" font-size="20.6658">i</text>
			<text transform="matrix(0.9544 0 0 1 1028.9336 741.3047)" fill="#5A5A5A" font-family="'HelveticaNeue'" font-size="20.6658">s</text>
			<text transform="matrix(0.9544 0 0 1 1039.8809 741.3047)" fill="#5A5A5A" font-family="'HelveticaNeue'" font-size="20.6658">p</text>
			<text transform="matrix(0.9544 0 0 1 1050.8467 741.3047)" fill="#5A5A5A" font-family="'HelveticaNeue'" font-size="20.6658">a</text>
			<text transform="matrix(0.9544 0 0 1 1061.793 741.3047)" fill="#5A5A5A" font-family="'HelveticaNeue'" font-size="20.6658">nic</text>
		</g>
	</g>
	<g>
		<defs>
			<rect id="SVGID_27_" x="399" y="117" width="1201" height="704.935"/>
		</defs>
		<clipPath id="SVGID_28_">
			<use xlink:href="#SVGID_27_"  overflow="visible"/>
		</clipPath>
		<g clip-path="url(#SVGID_28_)">
			<text transform="matrix(0.9544 0 0 1 1371.4521 741.3047)" fill="#5A5A5A" font-family="'HelveticaNeue'" font-size="20.6658">W</text>
			<text transform="matrix(0.9544 0 0 1 1388.9863 741.3047)" fill="#5A5A5A" font-family="'HelveticaNeue'" font-size="20.6658">hi</text>
			<text transform="matrix(0.9544 0 0 1 1404.3301 741.3047)" fill="#5A5A5A" font-family="'HelveticaNeue'" font-size="20.6658">t</text>
			<text transform="matrix(0.9544 0 0 1 1410.8789 741.3047)" fill="#5A5A5A" font-family="'HelveticaNeue'" font-size="20.6658">e</text>
		</g>
	</g>
	<g>
		<defs>
			<rect id="SVGID_29_" x="399" y="117" width="1201" height="704.935"/>
		</defs>
		<clipPath id="SVGID_30_">
			<use xlink:href="#SVGID_29_"  overflow="visible"/>
		</clipPath>
		<g clip-path="url(#SVGID_30_)">
			<text transform="matrix(0.9544 0 0 1 786.4756 172.1104)" fill="#5A5A5A" font-family="'HelveticaNeue'" font-size="32.1469">I</text>
			<text transform="matrix(0.9544 0 0 1 795.2188 172.1104)" fill="#5A5A5A" font-family="'HelveticaNeue'" font-size="32.1469">n</text>
			<text transform="matrix(0.9544 0 0 1 812.7383 172.1104)" fill="#5A5A5A" font-family="'HelveticaNeue'" font-size="32.1469">c</text>
			<text transform="matrix(0.9544 0 0 1 830.2568 172.1104)" fill="#5A5A5A" font-family="'HelveticaNeue'" font-size="32.1469">o</text>
			<text transform="matrix(0.9544 0 0 1 847.8047 172.1104)" fill="#5A5A5A" font-family="'HelveticaNeue'" font-size="32.1469">m</text>
			<text transform="matrix(0.9544 0 0 1 874.0684 172.1104)" fill="#5A5A5A" font-family="'HelveticaNeue'" font-size="32.1469">e</text>
			<text transform="matrix(0.9544 0 0 1 891.5859 172.1104)" fill="#5A5A5A" font-family="'HelveticaNeue'" font-size="32.1469"> </text>
			<text transform="matrix(0.9544 0 0 1 898.1836 172.1104)" fill="#5A5A5A" font-family="'HelveticaNeue'" font-size="32.1469">o</text>
			<text transform="matrix(0.9544 0 0 1 915.7324 172.1104)" fill="#5A5A5A" font-family="'HelveticaNeue'" font-size="32.1469">f</text>
			<text transform="matrix(0.9544 0 0 1 924.5068 172.1104)" fill="#5A5A5A" font-family="'HelveticaNeue'" font-size="32.1469"> </text>
			<text transform="matrix(0.9544 0 0 1 931.1035 172.1104)" fill="#5A5A5A" font-family="'HelveticaNeue'" font-size="32.1469">I</text>
			<text transform="matrix(0.9544 0 0 1 939.8467 172.1104)" fill="#5A5A5A" font-family="'HelveticaNeue'" font-size="32.1469">n</text>
			<text transform="matrix(0.9544 0 0 1 957.3652 172.1104)" fill="#5A5A5A" font-family="'HelveticaNeue'" font-size="32.1469">ca</text>
			<text transform="matrix(0.9544 0 0 1 992.4023 172.1104)" fill="#5A5A5A" font-family="'HelveticaNeue'" font-size="32.1469">r</text>
			<text transform="matrix(0.9544 0 0 1 1003.3242 172.1104)" fill="#5A5A5A" font-family="'HelveticaNeue'" font-size="32.1469">ce</text>
			<text transform="matrix(0.9544 0 0 1 1038.3613 172.1104)" fill="#5A5A5A" font-family="'HelveticaNeue'" font-size="32.1469">r</text>
			<text transform="matrix(0.9544 0 0 1 1049.2842 172.1104)" fill="#5A5A5A" font-family="'HelveticaNeue'" font-size="32.1469">a</text>
			<text transform="matrix(0.9544 0 0 1 1064.624 172.1104)" fill="#5A5A5A" font-family="'HelveticaNeue'" font-size="32.1469">t</text>
			<text transform="matrix(0.9544 0 0 1 1073.3984 172.1104)" fill="#5A5A5A" font-family="'HelveticaNeue'" font-size="32.1469">e</text>
			<text transform="matrix(0.9544 0 0 1 1090.917 172.1104)" fill="#5A5A5A" font-family="'HelveticaNeue'" font-size="32.1469">d</text>
			<text transform="matrix(0.9544 0 0 1 1108.4648 172.1104)" fill="#5A5A5A" font-family="'HelveticaNeue'" font-size="32.1469"> </text>
			<text transform="matrix(0.9544 0 0 1 1115.0615 172.1104)" fill="#5A5A5A" font-family="'HelveticaNeue'" font-size="32.1469">p</text>
			<text transform="matrix(0.9544 0 0 1 1132.6113 172.1104)" fill="#5A5A5A" font-family="'HelveticaNeue'" font-size="32.1469">e</text>
			<text transform="matrix(0.9544 0 0 1 1150.1299 172.1104)" fill="#5A5A5A" font-family="'HelveticaNeue'" font-size="32.1469">o</text>
			<text transform="matrix(0.9544 0 0 1 1167.6797 172.1104)" fill="#5A5A5A" font-family="'HelveticaNeue'" font-size="32.1469">p</text>
			<text transform="matrix(0.9544 0 0 1 1185.2285 172.1104)" fill="#5A5A5A" font-family="'HelveticaNeue'" font-size="32.1469">l</text>
			<text transform="matrix(0.9544 0 0 1 1191.8242 172.1104)" fill="#5A5A5A" font-family="'HelveticaNeue'" font-size="32.1469">e</text>
		</g>
	</g>
	<g>
		<defs>
			<rect id="SVGID_31_" x="399" y="117" width="1201" height="704.935"/>
		</defs>
		<clipPath id="SVGID_32_">
			<use xlink:href="#SVGID_31_"  overflow="visible"/>
		</clipPath>
		<g clip-path="url(#SVGID_32_)">
			<text transform="matrix(0.9544 0 0 1 845.6494 208.8496)" fill="#5A5A5A" font-family="'HelveticaNeue'" font-size="32.1469">(</text>
			<text transform="matrix(0.9544 0 0 1 854.3926 208.8496)" fill="#5A5A5A" font-family="'HelveticaNeue'" font-size="32.1469">p</text>
			<text transform="matrix(0.9544 0 0 1 871.9424 208.8496)" fill="#5A5A5A" font-family="'HelveticaNeue'" font-size="32.1469">r</text>
			<text transform="matrix(0.9544 0 0 1 882.8643 208.8496)" fill="#5A5A5A" font-family="'HelveticaNeue'" font-size="32.1469">i</text>
			<text transform="matrix(0.9544 0 0 1 889.4609 208.8496)" fill="#5A5A5A" font-family="'HelveticaNeue'" font-size="32.1469">o</text>
			<text transform="matrix(0.9544 0 0 1 907.0098 208.8496)" fill="#5A5A5A" font-family="'HelveticaNeue'" font-size="32.1469">r</text>
			<text transform="matrix(0.9544 0 0 1 917.9316 208.8496)" fill="#5A5A5A" font-family="'HelveticaNeue'" font-size="32.1469"> </text>
			<text transform="matrix(0.9544 0 0 1 924.5293 208.8496)" fill="#5A5A5A" font-family="'HelveticaNeue'" font-size="32.1469">t</text>
			<text transform="matrix(0.9544 0 0 1 933.3027 208.8496)" fill="#5A5A5A" font-family="'HelveticaNeue'" font-size="32.1469">o</text>
			
				<text transform="matrix(0.9544 0 0 1 950.8516 208.8496)" fill="#5A5A5A" font-family="'HelveticaNeue'" font-size="32.1469" letter-spacing="1.048"> </text>
			<text transform="matrix(0.9544 0 0 1 961.7734 208.8496)" fill="#5A5A5A" font-family="'HelveticaNeue'" font-size="32.1469">i</text>
			<text transform="matrix(0.9544 0 0 1 968.3701 208.8496)" fill="#5A5A5A" font-family="'HelveticaNeue'" font-size="32.1469">n</text>
			<text transform="matrix(0.9544 0 0 1 985.8887 208.8496)" fill="#5A5A5A" font-family="'HelveticaNeue'" font-size="32.1469">ca</text>
			<text transform="matrix(0.9544 0 0 1 1020.9258 208.8496)" fill="#5A5A5A" font-family="'HelveticaNeue'" font-size="32.1469">r</text>
			<text transform="matrix(0.9544 0 0 1 1031.8477 208.8496)" fill="#5A5A5A" font-family="'HelveticaNeue'" font-size="32.1469">ce</text>
			<text transform="matrix(0.9544 0 0 1 1066.8838 208.8496)" fill="#5A5A5A" font-family="'HelveticaNeue'" font-size="32.1469">r</text>
			<text transform="matrix(0.9544 0 0 1 1077.8076 208.8496)" fill="#5A5A5A" font-family="'HelveticaNeue'" font-size="32.1469">a</text>
			<text transform="matrix(0.9544 0 0 1 1093.1475 208.8496)" fill="#5A5A5A" font-family="'HelveticaNeue'" font-size="32.1469">t</text>
			<text transform="matrix(0.9544 0 0 1 1101.9209 208.8496)" fill="#5A5A5A" font-family="'HelveticaNeue'" font-size="32.1469">i</text>
			<text transform="matrix(0.9544 0 0 1 1108.5176 208.8496)" fill="#5A5A5A" font-family="'HelveticaNeue'" font-size="32.1469">o</text>
			<text transform="matrix(0.9544 0 0 1 1126.0664 208.8496)" fill="#5A5A5A" font-family="'HelveticaNeue'" font-size="32.1469">n</text>
			<text transform="matrix(0.9544 0 0 1 1143.584 208.8496)" fill="#5A5A5A" font-family="'HelveticaNeue'" font-size="32.1469">)</text>
		</g>
	</g>
	<g>
		<defs>
			<rect id="SVGID_33_" x="399" y="117" width="1201" height="704.935"/>
		</defs>
		<clipPath id="SVGID_34_">
			<use xlink:href="#SVGID_33_"  overflow="visible"/>
		</clipPath>
		<rect x="927.178" y="776.011" clip-path="url(#SVGID_34_)" fill="#3C2415" width="10.957" height="11.48"/>
	</g>
	<g>
		<defs>
			<rect id="SVGID_35_" x="399" y="117" width="1201" height="704.935"/>
		</defs>
		<clipPath id="SVGID_36_">
			<use xlink:href="#SVGID_35_"  overflow="visible"/>
		</clipPath>
		<g clip-path="url(#SVGID_36_)">
			<text transform="matrix(0.9544 0 0 1 942.2998 791.0938)" fill="#5A5A5A" font-family="'HelveticaNeue'" font-size="20.6658">M</text>
			<text transform="matrix(0.9544 0 0 1 959.8145 791.0938)" fill="#5A5A5A" font-family="'HelveticaNeue'" font-size="20.6658">e</text>
			<text transform="matrix(0.9544 0 0 1 970.7598 791.0938)" fill="#5A5A5A" font-family="'HelveticaNeue'" font-size="20.6658">n</text>
		</g>
	</g>
	<g>
		<defs>
			<rect id="SVGID_37_" x="399" y="117" width="1201" height="704.935"/>
		</defs>
		<clipPath id="SVGID_38_">
			<use xlink:href="#SVGID_37_"  overflow="visible"/>
		</clipPath>
		<rect x="997.309" y="776.011" clip-path="url(#SVGID_38_)" fill="#F26522" width="10.959" height="11.48"/>
	</g>
	<g>
		<defs>
			<rect id="SVGID_39_" x="399" y="117" width="1201" height="704.935"/>
		</defs>
		<clipPath id="SVGID_40_">
			<use xlink:href="#SVGID_39_"  overflow="visible"/>
		</clipPath>
		<g clip-path="url(#SVGID_40_)">
			<text transform="matrix(0.9544 0 0 1 1011.5996 791.0938)" fill="#5A5A5A" font-family="'HelveticaNeue'" font-size="20.6658">W</text>
			<text transform="matrix(0.9544 0 0 1 1029.1338 791.0938)" fill="#5A5A5A" font-family="'HelveticaNeue'" font-size="20.6658">o</text>
			<text transform="matrix(0.9544 0 0 1 1040.0996 791.0938)" fill="#5A5A5A" font-family="'HelveticaNeue'" font-size="20.6658">m</text>
			<text transform="matrix(0.9544 0 0 1 1057.6143 791.0938)" fill="#5A5A5A" font-family="'HelveticaNeue'" font-size="20.6658">e</text>
			<text transform="matrix(0.9544 0 0 1 1068.5605 791.0938)" fill="#5A5A5A" font-family="'HelveticaNeue'" font-size="20.6658">n</text>
		</g>
	</g>
	<g>
		<defs>
			<rect id="SVGID_41_" x="399" y="117" width="1201" height="704.935"/>
		</defs>
		<clipPath id="SVGID_42_">
			<use xlink:href="#SVGID_41_"  overflow="visible"/>
		</clipPath>
		
			<rect x="400.096" y="118.148" clip-path="url(#SVGID_42_)" fill="none" stroke="#D9D9D8" stroke-linejoin="round" stroke-miterlimit="10" width="1198.811" height="702.638"/>
	</g>
</g>
</svg>
