<?xml version="1.0" encoding="utf-8"?>
<!-- Generator: Adobe Illustrator 16.0.4, SVG Export Plug-In . SVG Version: 6.00 Build 0)  -->
<!DOCTYPE svg PUBLIC "-//W3C//DTD SVG 1.1//EN" "http://www.w3.org/Graphics/SVG/1.1/DTD/svg11.dtd">
<svg version="1.1" id="Layer_1" xmlns="http://www.w3.org/2000/svg" xmlns:xlink="http://www.w3.org/1999/xlink" x="0px" y="0px"
	 width="1920px" height="726px" viewBox="0 113.5 1920 726" enable-background="new 0 113.5 1920 726" xml:space="preserve">
<g>
	<g>
		<g>
			<defs>
				<rect id="SVGID_1_" x="399" y="143" width="1163" height="664"/>
			</defs>
			<clipPath id="SVGID_2_">
				<use xlink:href="#SVGID_1_"  overflow="visible"/>
			</clipPath>
			<rect x="399" y="143" clip-path="url(#SVGID_2_)" fill="#FFFFFF" fill-opacity="0" width="1163" height="664"/>
		</g>
	</g>
	<g>
		<g>
			<defs>
				<rect id="SVGID_3_" x="399" y="143" width="1163" height="664"/>
			</defs>
			<clipPath id="SVGID_4_">
				<use xlink:href="#SVGID_3_"  overflow="visible"/>
			</clipPath>
			<rect x="399" y="146.06" clip-path="url(#SVGID_4_)" fill="#FFFFFF" width="1163" height="657.88"/>
		</g>
	</g>
</g>
<g>
	<g>
		<g>
			<defs>
				<rect id="SVGID_5_" x="592.833" y="268.456" width="927.17" height="385.549"/>
			</defs>
			<clipPath id="SVGID_6_">
				<use xlink:href="#SVGID_5_"  overflow="visible"/>
			</clipPath>
			<path clip-path="url(#SVGID_6_)" fill="#3C2415" d="M1287.402,286.815h67.842v367.189h-67.842V286.815z M977.27,421.452h71.072
				v232.553H977.27V421.452z M670.367,412.272h67.841v241.731h-67.841V412.272z"/>
		</g>
	</g>
</g>
<g>
	<g>
		<g>
			<defs>
				<rect id="SVGID_7_" x="592.833" y="268.456" width="927.17" height="385.549"/>
			</defs>
			<clipPath id="SVGID_8_">
				<use xlink:href="#SVGID_7_"  overflow="visible"/>
			</clipPath>
			<path clip-path="url(#SVGID_8_)" fill="#F26522" d="M1374.628,452.051h71.072v201.954h-71.072V452.051z M1064.494,537.729h71.072
				v116.276h-71.072V537.729z M757.592,467.351h67.842v186.654h-67.842V467.351z"/>
		</g>
	</g>
</g>
<g>
	<g>
		<g>
			<defs>
				<rect id="SVGID_9_" x="399" y="145" width="1163" height="660.94"/>
			</defs>
			<clipPath id="SVGID_10_">
				<use xlink:href="#SVGID_9_"  overflow="visible"/>
			</clipPath>
			
				<line clip-path="url(#SVGID_10_)" fill="none" stroke="#D9D9D8" stroke-linejoin="round" stroke-miterlimit="10" x1="594.449" y1="654.475" x2="1521.618" y2="654.475"/>
		</g>
	</g>
</g>
<g>
	<g>
		<g>
			<defs>
				<rect id="SVGID_11_" x="399" y="143" width="1163" height="660.94"/>
			</defs>
			<clipPath id="SVGID_12_">
				<use xlink:href="#SVGID_11_"  overflow="visible"/>
			</clipPath>
			<g clip-path="url(#SVGID_12_)">
				<text transform="matrix(1.0558 0 0 1 491.9736 664.1133)" fill="#5A5A5A" font-family="'HelveticaNeue'" font-size="27.5392">$0</text>
				<text transform="matrix(1.0558 0 0 1 524.3066 664.1133)" fill="#5A5A5A" font-family="'HelveticaNeue'" font-size="27.5392">.</text>
				<text transform="matrix(1.0558 0 0 1 533.9883 664.1133)" fill="#5A5A5A" font-family="'HelveticaNeue'" font-size="27.5392">00</text>
			</g>
		</g>
	</g>
</g>
<g>
	<g>
		<g>
			<defs>
				<rect id="SVGID_13_" x="399" y="143" width="1163" height="660.94"/>
			</defs>
			<clipPath id="SVGID_14_">
				<use xlink:href="#SVGID_13_"  overflow="visible"/>
			</clipPath>
			<g clip-path="url(#SVGID_14_)">
				<text transform="matrix(1.0558 0 0 1 434.6152 625.7207)" fill="#5A5A5A" font-family="'HelveticaNeue'" font-size="27.5392">$5</text>
				<text transform="matrix(1.0558 0 0 1 466.9482 625.7207)" fill="#5A5A5A" font-family="'HelveticaNeue'" font-size="27.5392">,</text>
				<text transform="matrix(1.0558 0 0 1 476.6299 625.7207)" fill="#5A5A5A" font-family="'HelveticaNeue'" font-size="27.5392">000</text>
				<text transform="matrix(1.0558 0 0 1 525.1279 625.7207)" fill="#5A5A5A" font-family="'HelveticaNeue'" font-size="27.5392">.</text>
				<text transform="matrix(1.0558 0 0 1 534.8105 625.7207)" fill="#5A5A5A" font-family="'HelveticaNeue'" font-size="27.5392">00</text>
			</g>
		</g>
	</g>
</g>
<g>
	<g>
		<g>
			<defs>
				<rect id="SVGID_15_" x="399" y="143" width="1163" height="660.94"/>
			</defs>
			<clipPath id="SVGID_16_">
				<use xlink:href="#SVGID_15_"  overflow="visible"/>
			</clipPath>
			<g clip-path="url(#SVGID_16_)">
				<text transform="matrix(1.0558 0 0 1 420.0615 587.3281)" fill="#5A5A5A" font-family="'HelveticaNeue'" font-size="27.5392">$10</text>
				<text transform="matrix(1.0558 0 0 1 468.5596 587.3281)" fill="#5A5A5A" font-family="'HelveticaNeue'" font-size="27.5392">,</text>
				<text transform="matrix(1.0558 0 0 1 478.2422 587.3281)" fill="#5A5A5A" font-family="'HelveticaNeue'" font-size="27.5392">000</text>
				<text transform="matrix(1.0558 0 0 1 526.7402 587.3281)" fill="#5A5A5A" font-family="'HelveticaNeue'" font-size="27.5392">.</text>
				<text transform="matrix(1.0558 0 0 1 536.4238 587.3281)" fill="#5A5A5A" font-family="'HelveticaNeue'" font-size="27.5392">00</text>
			</g>
		</g>
	</g>
</g>
<g>
	<g>
		<g>
			<defs>
				<rect id="SVGID_17_" x="399" y="143" width="1163" height="660.94"/>
			</defs>
			<clipPath id="SVGID_18_">
				<use xlink:href="#SVGID_17_"  overflow="visible"/>
			</clipPath>
			<g clip-path="url(#SVGID_18_)">
				<text transform="matrix(1.0558 0 0 1 420.0615 548.9336)" fill="#5A5A5A" font-family="'HelveticaNeue'" font-size="27.5392">$15</text>
				<text transform="matrix(1.0558 0 0 1 468.5596 548.9336)" fill="#5A5A5A" font-family="'HelveticaNeue'" font-size="27.5392">,</text>
				<text transform="matrix(1.0558 0 0 1 478.2422 548.9336)" fill="#5A5A5A" font-family="'HelveticaNeue'" font-size="27.5392">000</text>
				<text transform="matrix(1.0558 0 0 1 526.7402 548.9336)" fill="#5A5A5A" font-family="'HelveticaNeue'" font-size="27.5392">.</text>
				<text transform="matrix(1.0558 0 0 1 536.4238 548.9336)" fill="#5A5A5A" font-family="'HelveticaNeue'" font-size="27.5392">00</text>
			</g>
		</g>
	</g>
</g>
<g>
	<g>
		<g>
			<defs>
				<rect id="SVGID_19_" x="399" y="143" width="1163" height="660.94"/>
			</defs>
			<clipPath id="SVGID_20_">
				<use xlink:href="#SVGID_19_"  overflow="visible"/>
			</clipPath>
			<g clip-path="url(#SVGID_20_)">
				<text transform="matrix(1.0558 0 0 1 420.0615 510.541)" fill="#5A5A5A" font-family="'HelveticaNeue'" font-size="27.5392">$20</text>
				<text transform="matrix(1.0558 0 0 1 468.5596 510.541)" fill="#5A5A5A" font-family="'HelveticaNeue'" font-size="27.5392">,</text>
				<text transform="matrix(1.0558 0 0 1 478.2422 510.541)" fill="#5A5A5A" font-family="'HelveticaNeue'" font-size="27.5392">000</text>
				<text transform="matrix(1.0558 0 0 1 526.7402 510.541)" fill="#5A5A5A" font-family="'HelveticaNeue'" font-size="27.5392">.</text>
				<text transform="matrix(1.0558 0 0 1 536.4238 510.541)" fill="#5A5A5A" font-family="'HelveticaNeue'" font-size="27.5392">00</text>
			</g>
		</g>
	</g>
</g>
<g>
	<g>
		<g>
			<defs>
				<rect id="SVGID_21_" x="399" y="143" width="1163" height="660.94"/>
			</defs>
			<clipPath id="SVGID_22_">
				<use xlink:href="#SVGID_21_"  overflow="visible"/>
			</clipPath>
			<g clip-path="url(#SVGID_22_)">
				<text transform="matrix(1.0558 0 0 1 420.0615 472.1484)" fill="#5A5A5A" font-family="'HelveticaNeue'" font-size="27.5392">$25</text>
				<text transform="matrix(1.0558 0 0 1 468.5596 472.1484)" fill="#5A5A5A" font-family="'HelveticaNeue'" font-size="27.5392">,</text>
				<text transform="matrix(1.0558 0 0 1 478.2422 472.1484)" fill="#5A5A5A" font-family="'HelveticaNeue'" font-size="27.5392">000</text>
				<text transform="matrix(1.0558 0 0 1 526.7402 472.1484)" fill="#5A5A5A" font-family="'HelveticaNeue'" font-size="27.5392">.</text>
				<text transform="matrix(1.0558 0 0 1 536.4238 472.1484)" fill="#5A5A5A" font-family="'HelveticaNeue'" font-size="27.5392">00</text>
			</g>
		</g>
	</g>
</g>
<g>
	<g>
		<g>
			<defs>
				<rect id="SVGID_23_" x="399" y="143" width="1163" height="660.94"/>
			</defs>
			<clipPath id="SVGID_24_">
				<use xlink:href="#SVGID_23_"  overflow="visible"/>
			</clipPath>
			<g clip-path="url(#SVGID_24_)">
				<text transform="matrix(1.0558 0 0 1 420.0615 433.7559)" fill="#5A5A5A" font-family="'HelveticaNeue'" font-size="27.5392">$30</text>
				<text transform="matrix(1.0558 0 0 1 468.5596 433.7559)" fill="#5A5A5A" font-family="'HelveticaNeue'" font-size="27.5392">,</text>
				<text transform="matrix(1.0558 0 0 1 478.2422 433.7559)" fill="#5A5A5A" font-family="'HelveticaNeue'" font-size="27.5392">000</text>
				<text transform="matrix(1.0558 0 0 1 526.7402 433.7559)" fill="#5A5A5A" font-family="'HelveticaNeue'" font-size="27.5392">.</text>
				<text transform="matrix(1.0558 0 0 1 536.4238 433.7559)" fill="#5A5A5A" font-family="'HelveticaNeue'" font-size="27.5392">00</text>
			</g>
		</g>
	</g>
</g>
<g>
	<g>
		<g>
			<defs>
				<rect id="SVGID_25_" x="399" y="143" width="1163" height="660.94"/>
			</defs>
			<clipPath id="SVGID_26_">
				<use xlink:href="#SVGID_25_"  overflow="visible"/>
			</clipPath>
			<g clip-path="url(#SVGID_26_)">
				<text transform="matrix(1.0558 0 0 1 420.0615 395.3613)" fill="#5A5A5A" font-family="'HelveticaNeue'" font-size="27.5392">$35</text>
				<text transform="matrix(1.0558 0 0 1 468.5596 395.3613)" fill="#5A5A5A" font-family="'HelveticaNeue'" font-size="27.5392">,</text>
				<text transform="matrix(1.0558 0 0 1 478.2422 395.3613)" fill="#5A5A5A" font-family="'HelveticaNeue'" font-size="27.5392">000</text>
				<text transform="matrix(1.0558 0 0 1 526.7402 395.3613)" fill="#5A5A5A" font-family="'HelveticaNeue'" font-size="27.5392">.</text>
				<text transform="matrix(1.0558 0 0 1 536.4238 395.3613)" fill="#5A5A5A" font-family="'HelveticaNeue'" font-size="27.5392">00</text>
			</g>
		</g>
	</g>
</g>
<g>
	<g>
		<g>
			<defs>
				<rect id="SVGID_27_" x="399" y="143" width="1163" height="660.94"/>
			</defs>
			<clipPath id="SVGID_28_">
				<use xlink:href="#SVGID_27_"  overflow="visible"/>
			</clipPath>
			<g clip-path="url(#SVGID_28_)">
				<text transform="matrix(1.0558 0 0 1 420.0615 356.9688)" fill="#5A5A5A" font-family="'HelveticaNeue'" font-size="27.5392">$40</text>
				<text transform="matrix(1.0558 0 0 1 468.5596 356.9688)" fill="#5A5A5A" font-family="'HelveticaNeue'" font-size="27.5392">,</text>
				<text transform="matrix(1.0558 0 0 1 478.2422 356.9688)" fill="#5A5A5A" font-family="'HelveticaNeue'" font-size="27.5392">000</text>
				<text transform="matrix(1.0558 0 0 1 526.7402 356.9688)" fill="#5A5A5A" font-family="'HelveticaNeue'" font-size="27.5392">.</text>
				<text transform="matrix(1.0558 0 0 1 536.4238 356.9688)" fill="#5A5A5A" font-family="'HelveticaNeue'" font-size="27.5392">00</text>
			</g>
		</g>
	</g>
</g>
<g>
	<g>
		<g>
			<defs>
				<rect id="SVGID_29_" x="399" y="143" width="1163" height="660.94"/>
			</defs>
			<clipPath id="SVGID_30_">
				<use xlink:href="#SVGID_29_"  overflow="visible"/>
			</clipPath>
			<g clip-path="url(#SVGID_30_)">
				<text transform="matrix(1.0558 0 0 1 420.0615 318.5762)" fill="#5A5A5A" font-family="'HelveticaNeue'" font-size="27.5392">$45</text>
				<text transform="matrix(1.0558 0 0 1 468.5596 318.5762)" fill="#5A5A5A" font-family="'HelveticaNeue'" font-size="27.5392">,</text>
				<text transform="matrix(1.0558 0 0 1 478.2422 318.5762)" fill="#5A5A5A" font-family="'HelveticaNeue'" font-size="27.5392">000</text>
				<text transform="matrix(1.0558 0 0 1 526.7402 318.5762)" fill="#5A5A5A" font-family="'HelveticaNeue'" font-size="27.5392">.</text>
				<text transform="matrix(1.0558 0 0 1 536.4238 318.5762)" fill="#5A5A5A" font-family="'HelveticaNeue'" font-size="27.5392">00</text>
			</g>
		</g>
	</g>
</g>
<g>
	<g>
		<g>
			<defs>
				<rect id="SVGID_31_" x="399" y="143" width="1163" height="660.94"/>
			</defs>
			<clipPath id="SVGID_32_">
				<use xlink:href="#SVGID_31_"  overflow="visible"/>
			</clipPath>
			<g clip-path="url(#SVGID_32_)">
				<text transform="matrix(1.0558 0 0 1 420.0615 280.1836)" fill="#5A5A5A" font-family="'HelveticaNeue'" font-size="27.5392">$50</text>
				<text transform="matrix(1.0558 0 0 1 468.5596 280.1836)" fill="#5A5A5A" font-family="'HelveticaNeue'" font-size="27.5392">,</text>
				<text transform="matrix(1.0558 0 0 1 478.2422 280.1836)" fill="#5A5A5A" font-family="'HelveticaNeue'" font-size="27.5392">000</text>
				<text transform="matrix(1.0558 0 0 1 526.7402 280.1836)" fill="#5A5A5A" font-family="'HelveticaNeue'" font-size="27.5392">.</text>
				<text transform="matrix(1.0558 0 0 1 536.4238 280.1836)" fill="#5A5A5A" font-family="'HelveticaNeue'" font-size="27.5392">00</text>
			</g>
		</g>
	</g>
</g>
<g>
	<g>
		<g>
			<defs>
				<rect id="SVGID_33_" x="399" y="143" width="1163" height="660.94"/>
			</defs>
			<clipPath id="SVGID_34_">
				<use xlink:href="#SVGID_33_"  overflow="visible"/>
			</clipPath>
			<g clip-path="url(#SVGID_34_)">
				<text transform="matrix(1.0558 0 0 1 709.5889 698.0195)" fill="#5A5A5A" font-family="'HelveticaNeue'" font-size="27.5392">B</text>
				<text transform="matrix(1.0558 0 0 1 728.9824 698.0195)" fill="#5A5A5A" font-family="'HelveticaNeue'" font-size="27.5392">l</text>
				<text transform="matrix(1.0558 0 0 1 735.4375 698.0195)" fill="#5A5A5A" font-family="'HelveticaNeue'" font-size="27.5392">ac</text>
				<text transform="matrix(1.0558 0 0 1 767.7109 698.0195)" fill="#5A5A5A" font-family="'HelveticaNeue'" font-size="27.5392">k</text>
			</g>
		</g>
	</g>
</g>
<g>
	<g>
		<g>
			<defs>
				<rect id="SVGID_35_" x="399" y="143" width="1163" height="660.94"/>
			</defs>
			<clipPath id="SVGID_36_">
				<use xlink:href="#SVGID_35_"  overflow="visible"/>
			</clipPath>
			<g clip-path="url(#SVGID_36_)">
				<text transform="matrix(1.0558 0 0 1 999.1055 698.0195)" fill="#5A5A5A" font-family="'HelveticaNeue'" font-size="27.5392">H</text>
				<text transform="matrix(1.0558 0 0 1 1018.498 698.0195)" fill="#5A5A5A" font-family="'HelveticaNeue'" font-size="27.5392">i</text>
				<text transform="matrix(1.0558 0 0 1 1024.9531 698.0195)" fill="#5A5A5A" font-family="'HelveticaNeue'" font-size="27.5392">s</text>
				<text transform="matrix(1.0558 0 0 1 1041.0898 698.0195)" fill="#5A5A5A" font-family="'HelveticaNeue'" font-size="27.5392">p</text>
				<text transform="matrix(1.0558 0 0 1 1057.2559 698.0195)" fill="#5A5A5A" font-family="'HelveticaNeue'" font-size="27.5392">a</text>
				<text transform="matrix(1.0558 0 0 1 1073.3926 698.0195)" fill="#5A5A5A" font-family="'HelveticaNeue'" font-size="27.5392">nic</text>
			</g>
		</g>
	</g>
</g>
<g>
	<g>
		<g>
			<defs>
				<rect id="SVGID_37_" x="399" y="143" width="1163" height="660.94"/>
			</defs>
			<clipPath id="SVGID_38_">
				<use xlink:href="#SVGID_37_"  overflow="visible"/>
			</clipPath>
			<g clip-path="url(#SVGID_38_)">
				<text transform="matrix(1.0558 0 0 1 1327.3955 698.0195)" fill="#5A5A5A" font-family="'HelveticaNeue'" font-size="27.5392">W</text>
				<text transform="matrix(1.0558 0 0 1 1353.2441 698.0195)" fill="#5A5A5A" font-family="'HelveticaNeue'" font-size="27.5392">hi</text>
				<text transform="matrix(1.0558 0 0 1 1375.8652 698.0195)" fill="#5A5A5A" font-family="'HelveticaNeue'" font-size="27.5392">t</text>
				<text transform="matrix(1.0558 0 0 1 1385.5176 698.0195)" fill="#5A5A5A" font-family="'HelveticaNeue'" font-size="27.5392">e</text>
			</g>
		</g>
	</g>
</g>
<g>
	<g>
		<g>
			<defs>
				<rect id="SVGID_39_" x="399" y="143" width="1163" height="660.94"/>
			</defs>
			<clipPath id="SVGID_40_">
				<use xlink:href="#SVGID_39_"  overflow="visible"/>
			</clipPath>
			<g clip-path="url(#SVGID_40_)">
				<text transform="matrix(1.0558 0 0 1 618.6758 216.4375)" fill="#5A5A5A" font-family="'HelveticaNeue'" font-size="42.8387">I</text>
				<text transform="matrix(1.0558 0 0 1 631.5645 216.4375)" fill="#5A5A5A" font-family="'HelveticaNeue'" font-size="42.8387">n</text>
				<text transform="matrix(1.0558 0 0 1 657.3906 216.4375)" fill="#5A5A5A" font-family="'HelveticaNeue'" font-size="42.8387">c</text>
				<text transform="matrix(1.0558 0 0 1 683.2168 216.4375)" fill="#5A5A5A" font-family="'HelveticaNeue'" font-size="42.8387">o</text>
				<text transform="matrix(1.0558 0 0 1 709.0869 216.4375)" fill="#5A5A5A" font-family="'HelveticaNeue'" font-size="42.8387">m</text>
				<text transform="matrix(1.0558 0 0 1 747.8027 216.4375)" fill="#5A5A5A" font-family="'HelveticaNeue'" font-size="42.8387">e</text>
				<text transform="matrix(1.0558 0 0 1 773.6279 216.4375)" fill="#5A5A5A" font-family="'HelveticaNeue'" font-size="42.8387"> </text>
				<text transform="matrix(1.0558 0 0 1 783.3525 216.4375)" fill="#5A5A5A" font-family="'HelveticaNeue'" font-size="42.8387">o</text>
				<text transform="matrix(1.0558 0 0 1 809.2236 216.4375)" fill="#5A5A5A" font-family="'HelveticaNeue'" font-size="42.8387">f</text>
				<text transform="matrix(1.0558 0 0 1 822.1582 216.4375)" fill="#5A5A5A" font-family="'HelveticaNeue'" font-size="42.8387"> </text>
				<text transform="matrix(1.0558 0 0 1 831.8828 216.4375)" fill="#5A5A5A" font-family="'HelveticaNeue'" font-size="42.8387">N</text>
				<text transform="matrix(1.0558 0 0 1 864.2207 216.4375)" fill="#5A5A5A" font-family="'HelveticaNeue'" font-size="42.8387">o</text>
				<text transform="matrix(1.0558 0 0 1 890.0918 216.4375)" fill="#5A5A5A" font-family="'HelveticaNeue'" font-size="42.8387">n</text>
			</g>
		</g>
	</g>
</g>
<g>
	<g>
		<g>
			<defs>
				<rect id="SVGID_41_" x="399" y="143" width="1163" height="660.94"/>
			</defs>
			<clipPath id="SVGID_42_">
				<use xlink:href="#SVGID_41_"  overflow="visible"/>
			</clipPath>
			<g clip-path="url(#SVGID_42_)">
				<text transform="matrix(1.0558 0 0 1 915.8877 216.4375)" fill="#5A5A5A" font-family="'HelveticaNeue'" font-size="42.8387">-</text>
			</g>
		</g>
	</g>
</g>
<g>
	<g>
		<g>
			<defs>
				<rect id="SVGID_43_" x="399" y="143" width="1163" height="660.94"/>
			</defs>
			<clipPath id="SVGID_44_">
				<use xlink:href="#SVGID_43_"  overflow="visible"/>
			</clipPath>
			<g clip-path="url(#SVGID_44_)">
				<text transform="matrix(1.0558 0 0 1 932.04 216.4375)" fill="#5A5A5A" font-family="'HelveticaNeue'" font-size="42.8387">i</text>
				<text transform="matrix(1.0558 0 0 1 941.7637 216.4375)" fill="#5A5A5A" font-family="'HelveticaNeue'" font-size="42.8387">n</text>
				<text transform="matrix(1.0558 0 0 1 967.5889 216.4375)" fill="#5A5A5A" font-family="'HelveticaNeue'" font-size="42.8387">ca</text>
				<text transform="matrix(1.0558 0 0 1 1019.2402 216.4375)" fill="#5A5A5A" font-family="'HelveticaNeue'" font-size="42.8387">r</text>
				<text transform="matrix(1.0558 0 0 1 1035.3867 216.4375)" fill="#5A5A5A" font-family="'HelveticaNeue'" font-size="42.8387">ce</text>
				<text transform="matrix(1.0558 0 0 1 1087.0371 216.4375)" fill="#5A5A5A" font-family="'HelveticaNeue'" font-size="42.8387">r</text>
				<text transform="matrix(1.0558 0 0 1 1103.1836 216.4375)" fill="#5A5A5A" font-family="'HelveticaNeue'" font-size="42.8387">a</text>
				<text transform="matrix(1.0558 0 0 1 1129.0088 216.4375)" fill="#5A5A5A" font-family="'HelveticaNeue'" font-size="42.8387">t</text>
				<text transform="matrix(1.0558 0 0 1 1141.9434 216.4375)" fill="#5A5A5A" font-family="'HelveticaNeue'" font-size="42.8387">e</text>
				<text transform="matrix(1.0558 0 0 1 1167.7686 216.4375)" fill="#5A5A5A" font-family="'HelveticaNeue'" font-size="42.8387">d</text>
				<text transform="matrix(1.0558 0 0 1 1193.6396 216.4375)" fill="#5A5A5A" font-family="'HelveticaNeue'" font-size="42.8387"> </text>
				<text transform="matrix(1.0558 0 0 1 1203.3633 216.4375)" fill="#5A5A5A" font-family="'HelveticaNeue'" font-size="42.8387">p</text>
				<text transform="matrix(1.0558 0 0 1 1229.2344 216.4375)" fill="#5A5A5A" font-family="'HelveticaNeue'" font-size="42.8387">e</text>
				<text transform="matrix(1.0558 0 0 1 1255.0586 216.4375)" fill="#5A5A5A" font-family="'HelveticaNeue'" font-size="42.8387">o</text>
				<text transform="matrix(1.0558 0 0 1 1280.9297 216.4375)" fill="#5A5A5A" font-family="'HelveticaNeue'" font-size="42.8387">p</text>
				<text transform="matrix(1.0558 0 0 1 1306.8008 216.4375)" fill="#5A5A5A" font-family="'HelveticaNeue'" font-size="42.8387">l</text>
				<text transform="matrix(1.0558 0 0 1 1316.5244 216.4375)" fill="#5A5A5A" font-family="'HelveticaNeue'" font-size="42.8387">e</text>
			</g>
		</g>
	</g>
</g>
<g>
	<g>
		<g>
			<defs>
				<rect id="SVGID_45_" x="399" y="143" width="1163" height="660.94"/>
			</defs>
			<clipPath id="SVGID_46_">
				<use xlink:href="#SVGID_45_"  overflow="visible"/>
			</clipPath>
			<rect x="873.893" y="745.802" clip-path="url(#SVGID_46_)" fill="#3C2415" width="16.152" height="15.3"/>
		</g>
	</g>
</g>
<g>
	<g>
		<g>
			<defs>
				<rect id="SVGID_47_" x="399" y="143" width="1163" height="660.94"/>
			</defs>
			<clipPath id="SVGID_48_">
				<use xlink:href="#SVGID_47_"  overflow="visible"/>
			</clipPath>
			<g clip-path="url(#SVGID_48_)">
				<text transform="matrix(1.0558 0 0 1 896.1826 764.3672)" fill="#5A5A5A" font-family="'HelveticaNeue'" font-size="27.5392">M</text>
				<text transform="matrix(1.0558 0 0 1 922.002 764.3672)" fill="#5A5A5A" font-family="'HelveticaNeue'" font-size="27.5392">e</text>
				<text transform="matrix(1.0558 0 0 1 938.1387 764.3672)" fill="#5A5A5A" font-family="'HelveticaNeue'" font-size="27.5392">n</text>
			</g>
		</g>
	</g>
</g>
<g>
	<g>
		<g>
			<defs>
				<rect id="SVGID_49_" x="399" y="143" width="1163" height="660.94"/>
			</defs>
			<clipPath id="SVGID_50_">
				<use xlink:href="#SVGID_49_"  overflow="visible"/>
			</clipPath>
			<rect x="977.27" y="745.802" clip-path="url(#SVGID_50_)" fill="#F26522" width="16.152" height="15.3"/>
		</g>
	</g>
</g>
<g>
	<g>
		<g>
			<defs>
				<rect id="SVGID_51_" x="399" y="143" width="1163" height="660.94"/>
			</defs>
			<clipPath id="SVGID_52_">
				<use xlink:href="#SVGID_51_"  overflow="visible"/>
			</clipPath>
			<g clip-path="url(#SVGID_52_)">
				<text transform="matrix(1.0558 0 0 1 998.334 764.3672)" fill="#5A5A5A" font-family="'HelveticaNeue'" font-size="27.5392">W</text>
				<text transform="matrix(1.0558 0 0 1 1024.1816 764.3672)" fill="#5A5A5A" font-family="'HelveticaNeue'" font-size="27.5392">o</text>
				<text transform="matrix(1.0558 0 0 1 1040.3477 764.3672)" fill="#5A5A5A" font-family="'HelveticaNeue'" font-size="27.5392">m</text>
				<text transform="matrix(1.0558 0 0 1 1066.167 764.3672)" fill="#5A5A5A" font-family="'HelveticaNeue'" font-size="27.5392">e</text>
				<text transform="matrix(1.0558 0 0 1 1082.3037 764.3672)" fill="#5A5A5A" font-family="'HelveticaNeue'" font-size="27.5392">n</text>
			</g>
		</g>
	</g>
</g>
<g>
	<g>
		<g>
			<defs>
				<rect id="SVGID_53_" x="399" y="143" width="1163" height="664"/>
			</defs>
			<clipPath id="SVGID_54_">
				<use xlink:href="#SVGID_53_"  overflow="visible"/>
			</clipPath>
			
				<rect x="400.615" y="144.53" clip-path="url(#SVGID_54_)" fill="none" stroke="#D9D9D8" stroke-linejoin="round" stroke-miterlimit="10" width="1159.77" height="660.939"/>
		</g>
	</g>
</g>
</svg>
