<?xml version="1.0" encoding="utf-8"?>
<!-- Generator: Adobe Illustrator 16.0.4, SVG Export Plug-In . SVG Version: 6.00 Build 0)  -->
<!DOCTYPE svg PUBLIC "-//W3C//DTD SVG 1.1//EN" "http://www.w3.org/Graphics/SVG/1.1/DTD/svg11.dtd">
<svg version="1.1" id="Layer_1" xmlns="http://www.w3.org/2000/svg" xmlns:xlink="http://www.w3.org/1999/xlink" x="0px" y="0px"
	 width="1580px" height="721px" viewBox="0 0 1580 721" enable-background="new 0 0 1580 721" xml:space="preserve">
<g>
	<rect x="93" y="167" opacity="0" fill="#FFFFFF" width="807.14" height="487"/>
	<path fill="#1C75BC" d="M496.57,270.757c78.154,0,141.509,63.355,141.509,141.508c0,24.841-6.539,49.242-18.959,70.755
		l-122.55-70.755V270.757z"/>
	<path fill="none" stroke="#FFFFFF" stroke-width="2" stroke-linejoin="round" stroke-miterlimit="10" d="M496.57,270.757
		c78.154,0,141.509,63.355,141.509,141.508c0,24.841-6.539,49.242-18.959,70.755l-122.55-70.755V270.757z"/>
	<path fill="#ED7D31" d="M619.12,483.021c-39.076,67.683-125.621,90.873-193.304,51.796c-1.944-1.122-3.863-2.291-5.751-3.506
		l76.505-119.045L619.12,483.021z"/>
	<path fill="none" stroke="#FFFFFF" stroke-width="2" stroke-linejoin="round" stroke-miterlimit="10" d="M619.12,483.021
		c-39.076,67.683-125.621,90.873-193.304,51.796c-1.945-1.122-3.863-2.291-5.751-3.506l76.505-119.045L619.12,483.021z"/>
	<path fill="#009444" d="M420.065,531.311c-65.747-42.253-84.792-129.803-42.54-195.551c26.035-40.512,70.887-65.002,119.044-65.002
		v141.508L420.065,531.311z"/>
	<path fill="none" stroke="#FFFFFF" stroke-width="2" stroke-linejoin="round" stroke-miterlimit="10" d="M420.064,531.311
		c-65.746-42.253-84.792-129.803-42.54-195.551c26.036-40.512,70.888-65.002,119.045-65.002v141.508L420.064,531.311z"/>
	<text transform="matrix(1 0 0 1 572.249 364.9058)" fill="#414141" font-family="'HelveticaNeue'" font-size="17.4622">44%</text>
	<text transform="matrix(1 0 0 1 506.2812 529.8242)" fill="#414141" font-family="'HelveticaNeue'" font-size="17.4622">34%</text>
	<text transform="matrix(1 0 0 1 372.4053 384.3062)" fill="#414141" font-family="'HelveticaNeue'" font-size="17.4622">54%</text>
	<text transform="matrix(1 0 0 1 468.6309 213.5669)"><tspan x="0" y="0" fill="#5A5A5A" font-family="'HelveticaNeue'" font-size="27.1634">M</tspan><tspan x="23.306" y="0" fill="#5A5A5A" font-family="'HelveticaNeue'" font-size="27.1634">e</tspan><tspan x="38.816" y="0" fill="#5A5A5A" font-family="'HelveticaNeue'" font-size="27.1634">n</tspan></text>
	<rect x="387.917" y="615.195" fill="#1C75BC" width="7.761" height="9.701"/>
	
		<rect x="387.917" y="615.195" fill="none" stroke="#FFFFFF" stroke-width="2" stroke-linejoin="round" stroke-miterlimit="10" width="7.761" height="9.701"/>
	<text transform="matrix(1 0 0 1 399.709 627.9385)"><tspan x="0" y="0" fill="#5A5A5A" font-family="'HelveticaNeue'" font-size="17.4622">B</tspan><tspan x="11.647" y="0" fill="#5A5A5A" font-family="'HelveticaNeue'" font-size="17.4622">l</tspan><tspan x="15.523" y="0" fill="#5A5A5A" font-family="'HelveticaNeue'" font-size="17.4622">ac</tspan><tspan x="34.906" y="0" fill="#5A5A5A" font-family="'HelveticaNeue'" font-size="17.4622">k</tspan></text>
	<rect x="459.527" y="615.118" fill="#ED7D31" width="6.779" height="8.42"/>
	
		<rect x="459.706" y="615.195" fill="none" stroke="#FFFFFF" stroke-width="2" stroke-linejoin="round" stroke-miterlimit="10" width="9.701" height="9.701"/>
	<text transform="matrix(1 0 0 1 472.2422 627.9385)"><tspan x="0" y="0" fill="#5A5A5A" font-family="'HelveticaNeue'" font-size="17.4622">H</tspan><tspan x="11.647" y="0" fill="#5A5A5A" font-family="'HelveticaNeue'" font-size="17.4622">i</tspan><tspan x="15.523" y="0" fill="#5A5A5A" font-family="'HelveticaNeue'" font-size="17.4622">s</tspan><tspan x="25.215" y="0" fill="#5A5A5A" font-family="'HelveticaNeue'" font-size="17.4622">p</tspan><tspan x="34.923" y="0" fill="#5A5A5A" font-family="'HelveticaNeue'" font-size="17.4622">a</tspan><tspan x="44.615" y="0" fill="#5A5A5A" font-family="'HelveticaNeue'" font-size="17.4622">nic</tspan></text>
	<rect x="556.718" y="615.195" fill="#00A14B" width="7.76" height="9.701"/>
	
		<rect x="556.718" y="615.195" fill="none" stroke="#FFFFFF" stroke-width="2" stroke-linejoin="round" stroke-miterlimit="10" width="7.76" height="9.701"/>
	<text transform="matrix(1 0 0 1 569.0376 627.9385)"><tspan x="0" y="0" fill="#5A5A5A" font-family="'HelveticaNeue'" font-size="17.4622">W</tspan><tspan x="15.524" y="0" fill="#5A5A5A" font-family="'HelveticaNeue'" font-size="17.4622">hi</tspan><tspan x="29.109" y="0" fill="#5A5A5A" font-family="'HelveticaNeue'" font-size="17.4622">t</tspan><tspan x="34.906" y="0" fill="#5A5A5A" font-family="'HelveticaNeue'" font-size="17.4622">e</tspan></text>
</g>
<g>
	<rect x="661.104" y="168.521" opacity="0" fill="#FFFFFF" width="806.896" height="483.751"/>
	<rect x="663.038" y="170.456" fill="#FFFFFF" width="804.962" height="481.816"/>
	<path fill="#1C75BC" d="M1065.036,271.877c77.476,0,140.279,62.804,140.279,140.28c0,54.721-31.817,104.446-81.505,127.374
		l-58.774-127.374V271.877z"/>
	<path fill="none" stroke="#FFFFFF" stroke-width="2" stroke-linejoin="round" stroke-miterlimit="10" d="M1065.036,271.877
		c77.476,0,140.279,62.804,140.279,140.28c0,54.721-31.817,104.446-81.505,127.374l-58.774-127.374V271.877z"/>
	<path fill="#ED7D31" d="M1123.811,539.531c-53.022,24.467-115.661,13.525-157.25-27.469l98.476-99.905L1123.811,539.531z"/>
	<path fill="none" stroke="#FFFFFF" stroke-width="2" stroke-linejoin="round" stroke-miterlimit="10" d="M1123.811,539.531
		c-53.022,24.467-115.661,13.525-157.25-27.469l98.476-99.905L1123.811,539.531z"/>
	<path fill="#00A14B" d="M966.561,512.061c-55.177-54.386-55.817-143.203-1.431-198.38c26.364-26.747,62.351-41.803,99.906-41.803
		v140.28L966.561,512.061z"/>
	<path fill="none" stroke="#FFFFFF" stroke-width="2" stroke-linejoin="round" stroke-miterlimit="10" d="M966.561,512.061
		c-55.177-54.386-55.817-143.203-1.431-198.38c26.364-26.747,62.351-41.803,99.906-41.803v140.28L966.561,512.061z"/>
	<text transform="matrix(1 0 0 1 1149.7012 389.1123)" fill="#414141" font-family="'HelveticaNeue'" font-size="17.415">47%</text>
	<text transform="matrix(1 0 0 1 1025.8613 532.3027)" fill="#414141" font-family="'HelveticaNeue'" font-size="17.415">21%</text>
	<text transform="matrix(1 0 0 1 944.5918 375.5674)" fill="#414141" font-family="'HelveticaNeue'" font-size="17.415">41%</text>
	<text transform="matrix(1 0 0 1 1017.4395 214.9619)"><tspan x="0" y="0" fill="#5A5A5A" font-family="'HelveticaNeue'" font-size="27.09" letter-spacing="-1">W</tspan><tspan x="23.243" y="0" fill="#5A5A5A" font-family="'HelveticaNeue'" font-size="27.09">o</tspan><tspan x="38.738" y="0" fill="#5A5A5A" font-family="'HelveticaNeue'" font-size="27.09">m</tspan><tspan x="61.954" y="0" fill="#5A5A5A" font-family="'HelveticaNeue'" font-size="27.09">e</tspan><tspan x="77.423" y="0" fill="#5A5A5A" font-family="'HelveticaNeue'" font-size="27.09">n</tspan></text>
	<rect x="958.017" y="615.185" fill="#1C75BC" width="5.373" height="7.053"/>
	<text transform="matrix(1 0 0 1 968.4355 626.2812)"><tspan x="0" y="0" fill="#5A5A5A" font-family="'HelveticaNeue'" font-size="17.415">B</tspan><tspan x="11.616" y="0" fill="#5A5A5A" font-family="'HelveticaNeue'" font-size="17.415">l</tspan><tspan x="15.481" y="0" fill="#5A5A5A" font-family="'HelveticaNeue'" font-size="17.415">ac</tspan><tspan x="34.812" y="0" fill="#5A5A5A" font-family="'HelveticaNeue'" font-size="17.415">k</tspan></text>
	<rect x="1028.755" y="613.571" fill="#ED7D31" width="7.739" height="9.675"/>
	
		<rect x="1028.755" y="613.571" fill="none" stroke="#FFFFFF" stroke-width="2" stroke-linejoin="round" stroke-miterlimit="10" width="7.739" height="9.675"/>
	<text transform="matrix(1 0 0 1 1040.7725 626.2812)"><tspan x="0" y="0" fill="#5A5A5A" font-family="'HelveticaNeue'" font-size="17.415">H</tspan><tspan x="11.615" y="0" fill="#5A5A5A" font-family="'HelveticaNeue'" font-size="17.415">i</tspan><tspan x="15.481" y="0" fill="#5A5A5A" font-family="'HelveticaNeue'" font-size="17.415">s</tspan><tspan x="25.146" y="0" fill="#5A5A5A" font-family="'HelveticaNeue'" font-size="17.415">p</tspan><tspan x="34.829" y="0" fill="#5A5A5A" font-family="'HelveticaNeue'" font-size="17.415">a</tspan><tspan x="44.494" y="0" fill="#5A5A5A" font-family="'HelveticaNeue'" font-size="17.415">nic</tspan></text>
	<rect x="1125.505" y="613.571" fill="#00A14B" width="7.74" height="9.675"/>
	
		<rect x="1125.505" y="613.571" fill="none" stroke="#FFFFFF" stroke-width="2" stroke-linejoin="round" stroke-miterlimit="10" width="7.74" height="9.675"/>
	<text transform="matrix(1 0 0 1 1137.3066 626.2812)"><tspan x="0" y="0" fill="#5A5A5A" font-family="'HelveticaNeue'" font-size="17.415">W</tspan><tspan x="15.481" y="0" fill="#5A5A5A" font-family="'HelveticaNeue'" font-size="17.415">hi</tspan><tspan x="29.03" y="0" fill="#5A5A5A" font-family="'HelveticaNeue'" font-size="17.415">t</tspan><tspan x="34.812" y="0" fill="#5A5A5A" font-family="'HelveticaNeue'" font-size="17.415">e</tspan></text>
</g>
<rect x="219.5" y="80" fill="none" width="1095.745" height="70"/>
<text transform="matrix(1 0 0 1 246.9741 99.9917)"><tspan x="0" y="0" font-family="'HelveticaNeue'" font-size="28">Percentage difference between the median annual incomes for incarcerated people </tspan><tspan x="76.97" y="33.6" font-family="'HelveticaNeue'" font-size="28">prior to incarceration and non-incarcerated people, ages 27-42 in 2014</tspan></text>
</svg>
